<svg xmlns="http://www.w3.org/2000/svg" viewBox="0 0 754.38 206.59"><defs><style>.cls-1,.cls-2{fill:#00e8bb;}.cls-1{stroke:#00e8bb;stroke-miterlimit:10;}.cls-3{fill:#f97af4;}.cls-4{fill:#f1b700;}</style></defs><g id="레이어_2" data-name="레이어 2"><g id="레이어_1-2" data-name="레이어 1"><path class="cls-1" d="M591.19,91s-22.28-17.44-41.1-2.73c-.59.46-1.16,1-1.71,1.47-2.33,2.14-8.19,5.26-9.19,20.26s3,24,14,36,43,32,62,32c0,0,24-16,30-33,0,0,17.68,26,30.84,33,.16,0,37.16-5,61.16-27.59a37.22,37.22,0,0,0,2.38-2.91c3.39-3.91,12-17.1,14-31.66,1.55-11.66-2.52-24-12.37-30.47-8.62-5.62-19-7.37-32-1.37l-11,7S691.33,69.91,678,66.25a15.45,15.45,0,0,0-3.19-.66C663.19,65,658.19,67,648.19,74c0,0-20.53-18.07-40-5.08-3.19,2.12-8.19,8-8.09,8S591.19,91,591.19,91Z"/><path class="cls-2" d="M597.08,41.21l11.2,14.57A4.88,4.88,0,0,0,611,57.85a4.55,4.55,0,0,0,3.46-.45,4.5,4.5,0,0,0,2.07-2.69,4.34,4.34,0,0,0-.45-3.47l-11.2-14.57a5,5,0,0,0-2.69-2.07,4.63,4.63,0,0,0-3.47.46,4.52,4.52,0,0,0-2.06,2.69,4.31,4.31,0,0,0,.45,3.46Z"/><path class="cls-2" d="M639.94,30.44V47.88a4.5,4.5,0,0,0,9,0V30.44a4.5,4.5,0,0,0-9,0Z"/><path class="cls-2" d="M686.76,35.53,674.82,51.11a4.51,4.51,0,0,0-.46,3.46,4.52,4.52,0,0,0,5.54,3.15,5.4,5.4,0,0,0,2.69-2.07l11.95-15.58a4.51,4.51,0,0,0-5.09-6.61,5.4,5.4,0,0,0-2.69,2.07Z"/><path class="cls-3" d="M307.26,155.79a16,16,0,0,1-9.82.6c-3.25-.87-5.25-4.37-5.25-7.37,0-6.53,5.34-10.24,7.51-12,1.71-1.35,3.4-2.73,5-4.2,6-5.51,18.13-17.06,22.48-24.77.92-1.64,1.86-3.26,2.84-4.86A101.79,101.79,0,0,0,344.19,58c2-29,18.69-46.58,34.5-53.69C397.19-4,419.19,1,427.19,8c0,0,41,25,25,84-15.93,58.75-61,72-61,72s-7,1-9-3-2.83-7.18-8.41-4.59S352.19,171,348.19,163s-9-2-9-2-17,14-19-6C320.19,151.42,311.91,154,307.26,155.79Z"/><ellipse cx="411.69" cy="52.52" rx="6" ry="14"/><ellipse cx="433.69" cy="52.52" rx="6" ry="14"/><ellipse class="cls-3" cx="266.19" cy="168.52" rx="16" ry="12.5" transform="translate(-42.52 105.66) rotate(-20.83)"/><ellipse class="cls-3" cx="310.31" cy="194.54" rx="13.94" ry="10.34" transform="translate(-51.1 253.86) rotate(-41.4)"/><ellipse class="cls-3" cx="373.81" cy="179.54" rx="10.17" ry="8.33" transform="translate(-25.31 292.1) rotate(-41.4)"/><path class="cls-4" d="M28.19,194h47s0-11,6-14,32-7,40-19,18-25,26-29,9-17-2-15-34,14-36,20c0,0-1.86-22.61,2.07-32.3S131.19,54,135.19,46s-7-16-13-7-22,44-23,47c-.92,2.77-2.69,1.28-1.39-3.67.29-1.11.58-2.21.8-3.33,2.11-10.34,10.6-49.93,9.59-58a6.21,6.21,0,0,0-5-6c-5-1-7,0-9,5s-13,60-15,61-3-4-3-21-1-34-1-34-1-10-9-7c0,0-4,0-5,13s-2,50-4,52c-1,1-1.75-.5-2.25-2.25-1.15-4-2.38-8.07-3.87-12L40.19,41s-2-5-7-3-4.37,8-4,11c2,16,8,31,6,44s-6,37-5,47C31.59,154,33.19,179,28.19,194Z"/><path class="cls-4" d="M130.85,166.11v5.74A2.11,2.11,0,0,0,133,174a2.14,2.14,0,0,0,2.1-2.1v-5.74a2.1,2.1,0,1,0-4.2,0Z"/><path class="cls-4" d="M138.08,179.09h5.34a2.1,2.1,0,0,0,0-4.2h-5.34a2.1,2.1,0,0,0,0,4.2Z"/><path class="cls-4" d="M132.08,181.09v5.14a2.17,2.17,0,0,0,.61,1.48,2.1,2.1,0,0,0,3.59-1.48v-5.14a2.16,2.16,0,0,0-.62-1.48,2.12,2.12,0,0,0-1.48-.62,2.14,2.14,0,0,0-2.1,2.1Z"/><path class="cls-4" d="M130.07,175.06a26.69,26.69,0,0,1-5.79-.12l.56.08-1.2-.19A2.28,2.28,0,0,0,122,175a2.1,2.1,0,0,0,.5,3.84,28.09,28.09,0,0,0,7.55.38,2.25,2.25,0,0,0,1.48-.62,2.09,2.09,0,0,0-1.48-3.58Z"/><path class="cls-4" d="M154.85,43.11v5.74A2.11,2.11,0,0,0,157,51a2.14,2.14,0,0,0,2.1-2.1V43.11a2.1,2.1,0,0,0-4.2,0Z"/><path class="cls-4" d="M162.08,56.09h5.34a2.1,2.1,0,1,0,0-4.2h-5.34a2.1,2.1,0,0,0,0,4.2Z"/><path class="cls-4" d="M156.08,58.09v5.14a2.17,2.17,0,0,0,.61,1.48,2.1,2.1,0,0,0,3.59-1.48V58.09a2.16,2.16,0,0,0-.62-1.48,2.12,2.12,0,0,0-1.48-.62,2.14,2.14,0,0,0-2.1,2.1Z"/><path class="cls-4" d="M154.07,52.06a26.69,26.69,0,0,1-5.79-.12l.56.08-1.2-.19A2.28,2.28,0,0,0,146,52a2.1,2.1,0,0,0,.5,3.84,28.09,28.09,0,0,0,7.55.38,2.25,2.25,0,0,0,1.48-.62,2.09,2.09,0,0,0-1.48-3.58Z"/><path class="cls-4" d="M9.85,75.11v5.74A2.11,2.11,0,0,0,12,83a2.14,2.14,0,0,0,2.1-2.1V75.11a2.1,2.1,0,0,0-4.2,0Z"/><path class="cls-4" d="M17.08,88.09h5.34a2.1,2.1,0,1,0,0-4.2H17.08a2.1,2.1,0,1,0,0,4.2Z"/><path class="cls-4" d="M11.08,90.09v5.14a2.17,2.17,0,0,0,.61,1.48,2.1,2.1,0,0,0,3.59-1.48V90.09a2.16,2.16,0,0,0-.62-1.48A2.12,2.12,0,0,0,13.18,88a2.14,2.14,0,0,0-2.1,2.1Z"/><path class="cls-4" d="M9.07,84.06a26.69,26.69,0,0,1-5.79-.12l.56.08-1.2-.19A2.28,2.28,0,0,0,1,84a2.1,2.1,0,0,0,.5,3.84,28.09,28.09,0,0,0,7.55.38,2.25,2.25,0,0,0,1.48-.62,2.09,2.09,0,0,0-1.48-3.58Z"/></g></g></svg>