<svg xmlns="http://www.w3.org/2000/svg" viewBox="0 0 57 23.4"><defs><style>.cls-1{fill:#fff;stroke:#e00000;}.cls-1,.cls-2{stroke-miterlimit:10;}.cls-2{fill:none;stroke:#d80000;stroke-width:0.5px;}</style></defs><g id="레이어_2" data-name="레이어 2"><g id="레이어_1-2" data-name="레이어 1"><rect class="cls-1" x="0.5" y="0.5" width="56" height="22.4" rx="4.29"/><rect class="cls-2" x="2.99" y="2.99" width="51.01" height="17.42" rx="3.09"/><path d="M11.93,15.71a.18.18,0,0,0-.07-.07H11.8s0,0-.07,0l-.07.06v0a.64.64,0,0,1,0-.38,1.52,1.52,0,0,1,.22-.26v0l0,0v0h-.07l-.06,0a.13.13,0,0,1,0-.09.51.51,0,0,0,0-.09l-.32,0a.93.93,0,0,0,0-.28c0-.14,0-.22.05-.23l.1,0,.1-.17c-.08.05-.14,0-.17-.09l-.06-.2a.26.26,0,0,1,.2,0,.83.83,0,0,1,.11.15.71.71,0,0,0,.1.14.16.16,0,0,0,.16.06h0s0-.11,0-.2,0-.2,0-.31l0-.31c0-.11,0-.18,0-.22l0-.15,0-.12-.07-.21c0-.1,0-.19-.08-.29s-.06-.19-.08-.27a.81.81,0,0,0-.05-.15s0-.06-.08-.13a.33.33,0,0,0-.1-.12v-.07a1.8,1.8,0,0,0,0-.26c0-.12,0-.21,0-.25s.1,0,.11,0a.37.37,0,0,0,0-.12.28.28,0,0,1,0-.13s.05-.06.12-.07a.49.49,0,0,0-.13-.27.56.56,0,0,1-.13-.32.66.66,0,0,1,0-.13s0-.05.12-.05a.49.49,0,0,1-.3-.27,1.33,1.33,0,0,1-.14-.39v0a.83.83,0,0,0,0-.12v-.2c0-.06,0-.13,0-.19s0-.1,0-.12v0A2.16,2.16,0,0,0,11,8.21a2.74,2.74,0,0,1-.15-.58l0-.31a1.05,1.05,0,0,1,.09-.27c0-.12.09-.18.12-.19h.07a2.15,2.15,0,0,0,.08.25c0,.11.1.16.19.15a.09.09,0,0,0,.07-.06.36.36,0,0,0,0-.1.28.28,0,0,1,0-.09s0,0,.07-.06l0,.29.09,0s.08,0,.1,0a.45.45,0,0,1,.25.31,4.14,4.14,0,0,1,.15.56c0,.2.1.38.14.55s.12.26.21.26l.16,1a1.15,1.15,0,0,1,.17.19c.06.08.12.12.18.11a.21.21,0,0,0,.16-.11,1.76,1.76,0,0,0,.14-.23,1.39,1.39,0,0,0,.1-.26.89.89,0,0,0,0-.19c.05,0,.12,0,.23.08s.15.11.16.14-.15,0-.16.07a.42.42,0,0,0,0,.16h.08a.31.31,0,0,0,.07-.08.56.56,0,0,0,0-.08.24.24,0,0,1,.12.05s.09.06.11.05h.08l0-.2-.39-.29,0-.07.22.1.24.11h.05l0,0,0-.14a.08.08,0,0,1,.06-.12l.09,0a.27.27,0,0,0,.12,0s0,0,0-.06a.15.15,0,0,0,0-.08l0,0h0l-.11,0-.1,0-.09-.54a.51.51,0,0,1,.21-.07l.33-.09.27,0a.35.35,0,0,0-.15-.1l-.1,0A.13.13,0,0,1,14.71,8a.56.56,0,0,1-.08-.21h0a.16.16,0,0,1,.14,0,.56.56,0,0,0,.13.07H15l.05-.07.09-.11.09-.1s0,0,.06,0a.22.22,0,0,1,.14,0l.14,0a.1.1,0,0,0,0-.08.72.72,0,0,0-.13-.24A.79.79,0,0,0,15.34,7a.29.29,0,0,1,.12-.13l.2-.12.24-.09.19-.06h.17s.08,0,.09.11a.18.18,0,0,1,0,.13.25.25,0,0,0,0,.13V7a.94.94,0,0,0,.28-.35.76.76,0,0,0,.1-.44A1.67,1.67,0,0,0,16.65,6l-.09-.18a.22.22,0,0,0,.12-.06.21.21,0,0,0,0-.07.2.2,0,0,1,0-.08s.05,0,.11,0,.19,0,.2,0,0,.1,0,.21h.09a.58.58,0,0,0,0-.09l.05-.08h.36l-.06-.38.85-.13a1.11,1.11,0,0,1,0,.34s0,.07-.08.08l-.13.05a.53.53,0,0,0-.16.22l.23.17s-.06.09-.15.12L18,6.14a.43.43,0,0,1,0,.36,1.12,1.12,0,0,1-.19.24c-.07.07-.14.13-.19.19s-.05.11,0,.19a.74.74,0,0,0-.2.06l-.2.08s-.07,0-.1.12L17,7.63c0,.1-.06.18-.08.26a.42.42,0,0,1-.1.17,2.69,2.69,0,0,0-.43.43.24.24,0,0,0,0,.2,1.16,1.16,0,0,1,0,.18c0,.06,0,.16-.15.31a.65.65,0,0,1-.12.11l-.2.11-.21.13-.16.11a1.22,1.22,0,0,0-.26.52,1.6,1.6,0,0,1-.22.53.79.79,0,0,1-.19.22l-.21.22a1,1,0,0,0-.16.25.49.49,0,0,0,0,.32.14.14,0,0,0,.09.12.65.65,0,0,0,.16,0h.19a.26.26,0,0,1,.14,0l.07.11a.43.43,0,0,0,.26.13l.28.08a.26.26,0,0,1,.13.16,1.94,1.94,0,0,1,0,.24c0,.08,0,.17,0,.25a.34.34,0,0,0,.09.21l.08,0,.08,0a.54.54,0,0,1,0,.11.35.35,0,0,0,0,.12.54.54,0,0,0,.3-.11.46.46,0,0,0,0-.31l-.2,0a.18.18,0,0,1,.11-.12l.14-.06,0,0,.05,0c.08.1.17.15.25.13A.37.37,0,0,1,17,13a.61.61,0,0,1,.2.19l.16.21a.75.75,0,0,0,.19.17.46.46,0,0,0,.27,0,1.29,1.29,0,0,0,.06.25.77.77,0,0,0,.1.25,1,1,0,0,0,.17.18.3.3,0,0,0,.23.05l.07,0,.08,0a1.26,1.26,0,0,1-.2-.2.57.57,0,0,1-.1-.26h.08l.1.08c.06,0,.1.08.12.08l.11,0,.18,0h.28a.16.16,0,0,1,.09,0l.07.06a.33.33,0,0,0,.12.06l.11.05.09.62a.2.2,0,0,1-.07.2,1,1,0,0,1-.23.12l-.26.06c-.08,0-.12,0-.14.07s0,0,0,.07v.14a.57.57,0,0,0,0,.13v.09a.37.37,0,0,1-.11.1c-.07.05-.12.07-.14.06a.27.27,0,0,1-.17-.19l-.07.12a.2.2,0,0,1-.12.08l0-.29-.61.09,0,0,0,0a.42.42,0,0,0-.05-.12,1.13,1.13,0,0,0-.07-.15v-.07a.67.67,0,0,0,0-.07.14.14,0,0,0,0-.07l-.12-.09-.12-.09.07.48a2,2,0,0,1-.43-.17l-.62-.33-.61-.37a3.78,3.78,0,0,1-.39-.27.92.92,0,0,0-.17-.15l-.22-.19c-.07-.07-.14-.13-.19-.19s-.09-.1-.09-.13a.63.63,0,0,0,.33-.14.35.35,0,0,0,.09-.36s0,0,0-.07,0-.05,0-.05a.13.13,0,0,0-.11,0l0,0,0,.31h-.08a.2.2,0,0,1-.11,0l-.07,0-.07,0a.3.3,0,0,0-.21.11,1.21,1.21,0,0,1-.16.16h-.09a.1.1,0,0,0,0-.07.24.24,0,0,0,0-.1.68.68,0,0,0-.16-.11l-.28-.15-.29-.12a.37.37,0,0,0-.19-.05s0,0-.06.09a1.71,1.71,0,0,0-.07.18,1.77,1.77,0,0,0,0,.2c0,.07,0,.1,0,.11a.56.56,0,0,0,.17.32.55.55,0,0,1,.16.32v0a0,0,0,0,0,0,0v0a.5.5,0,0,0,0,.12.68.68,0,0,0,0,.12l0,0s0,.06.05.06a.12.12,0,0,1,0,.09V15c-.07,0-.13,0-.19-.14l0,.07a.19.19,0,0,0,0,.1l.09,0,.08,0s0,0,.05.07v0s0,0,0,0v0l-.07.05-.07,0s0,.06,0,.14a.68.68,0,0,0,0,.15l0,.08a.69.69,0,0,1,0,.13l0,.14a.32.32,0,0,0,0,.08.13.13,0,0,0,.08.13.14.14,0,0,1,.1.12.49.49,0,0,1-.06.33.68.68,0,0,0,0,.38l-.2,0,.05.27-.69.11s0,.06,0,.06,0,0-.07.07a.18.18,0,0,1-.12-.09,1.18,1.18,0,0,1-.07-.2c0-.08,0-.15-.05-.23a.49.49,0,0,0-.08-.18Zm1.19-1.38s0,0,0,0,0,0,0,0S13.17,14.35,13.12,14.33Zm-.7-5s0,0,0,.08,0,.06.06.06.05,0,.05-.08S12.47,9.35,12.42,9.36Zm.7,3.58h.06v-.06h-.06Zm.65-2.59h.06v-.08Zm.48-.07s-.06,0-.05.06,0,.06.07.06,0,0,0-.07S14.28,10.27,14.25,10.28Zm.22-1.73s0,0,0,0,0,0,0,0S14.46,8.62,14.47,8.55Zm.86,5.18s0,0-.05,0,0,0,0,0h.05S15.34,13.74,15.33,13.73Zm-.6-4.32s0,0,0,.08,0,.08,0,.08a.07.07,0,0,0,.06-.09C14.8,9.43,14.78,9.41,14.73,9.41Zm.65.12,0,0h0a.16.16,0,0,0-.09,0l-.1.05.26,0Zm-.35-1h.07l0-.14H15Zm.69,4.55h.07L15.71,13Zm-.65-5.19s0,0,0,.07,0,.07.06.06,0,0,0-.07S15.1,7.9,15.07,7.91Zm1.1,6.24s0,0,0,0,0,.05,0,.05S16.2,14.17,16.17,14.15Zm-.68-4.9V9.18h-.06Zm-.21-1.38h.06v0Zm0-.32s.05,0,.06,0,0,.06,0,.07-.05,0-.05-.06S15.26,7.55,15.29,7.55Zm.07,0s0,0,0,.08,0,.06.05.06a.06.06,0,0,0,0-.08A.07.07,0,0,0,15.36,7.58Zm1.44,5.79h.07v-.07h-.07Zm.44.08s0,0,0,0,0,0,0,0,0,0,0,0S17.26,13.44,17.24,13.45Zm.47,2.14s0,0,0,0l0,0h.07l0,0s0,0,0,0Zm-1-8.13a.18.18,0,0,0-.05.16l.17,0A.16.16,0,0,0,16.67,7.46Zm.48-.57C17,6.91,17,7,17,7.05h.13l.09,0A.08.08,0,0,0,17.29,7S17.23,6.88,17.15,6.89Zm-.1-.24.21,0a.2.2,0,0,0-.08-.12l-.11-.07H17Zm-.09-1s0,0,0,.08,0,.07.05.07,0,0,0-.08S17,5.66,17,5.67Zm.22.54V6.13c0-.07,0-.11-.1-.12L17,6.09Zm1.3,9.06h.08l0-.14h-.07ZM17.42,5.92a.61.61,0,0,0,.09.28c0,.07.13.09.27.07l0-.13A.49.49,0,0,0,17.71,6a.64.64,0,0,0-.08-.14.16.16,0,0,0-.14,0h0s0,0,0,0l0,0Zm.27.49s0,0,0,.07,0,.07,0,.06a.05.05,0,0,0,.05-.07S17.73,6.4,17.69,6.41Zm.13-1a0,0,0,0,0,0,0s0,0,0,0,0,0,0,0A0,0,0,0,0,17.82,5.41ZM19.35,15a.15.15,0,0,0,.13-.11l-.14,0Z"/><path d="M24.8,15.3a.29.29,0,0,0,0,.11c0,.05,0,.07,0,.09s0-.06-.06-.06l-.15,0-.15,0-.16,0-.22,0H24l-.07,0h-.06l0,0,0,0,0,0,0,0s0-.06,0-.11-.05-.09-.08-.1a.3.3,0,0,0-.15,0h-.15l0-.14-.22.21-.05,0L23,15.16a.17.17,0,0,1,0-.12c0-.06,0-.09-.07-.1a.12.12,0,0,0-.06.09v.09a.14.14,0,0,1,0,.09.21.21,0,0,1-.15.06.55.55,0,0,1-.36,0,.23.23,0,0,1-.1-.17l0-.21c0-.06,0-.1-.11-.11h-.17l-.2,0,0-.15a.49.49,0,0,1-.27,0,.65.65,0,0,1-.21-.16l-.18-.22L20.92,14l-.1-.09-.11-.13a1.13,1.13,0,0,1-.3-.37L20.22,13l0,0,0,0s0-.12-.07-.24L20,12.48v-.11a.67.67,0,0,1,0-.2A.74.74,0,0,0,20,12l0-.08s0,0,0-.05l0-.06,0-.27s0-.12,0-.22,0-.23,0-.34a1,1,0,0,1,0-.32.17.17,0,0,1,.13-.15.53.53,0,0,1,0,.13.25.25,0,0,0,0,.12h.19c.08,0,.13,0,.15-.09a.49.49,0,0,0,0-.13l0-.11h0l0,.14h.17l0,0,0,0,.13,0,.11-.05v-.08a.67.67,0,0,0-.13-.3.72.72,0,0,1-.12-.31.32.32,0,0,1,.17,0H21c.06,0,.09,0,.1-.08A.14.14,0,0,0,21,9.53a.23.23,0,0,1-.14,0l0,0a.41.41,0,0,1,0-.16.58.58,0,0,0,.05-.17l.08,0,.1,0h.19c.11,0,.17,0,.18.08l0,.07s0,.05,0,.06v0l.29-.08a.35.35,0,0,0,.22-.17.53.53,0,0,0,0-.18c0-.1,0-.15.08-.16s.08.14.19.13l.11,0c.05,0,.08,0,.09-.07a.14.14,0,0,0,0-.09l0-.05-.21,0a.07.07,0,0,0,0,0s0,0,0-.05a.33.33,0,0,0,0-.1s0-.06-.05-.06l0,0h0l.09,0,.11.05h.15a.27.27,0,0,1,.17.06,2.25,2.25,0,0,1,.08.24.35.35,0,0,0,.16.21h0l0,0V8.87h0l.08.06.08,0h0l.16-.05.14-.06v0c0-.05,0-.08-.11-.09a.24.24,0,0,1-.14,0h0s0,0,0,0a.26.26,0,0,1,0-.1l0-.06a.3.3,0,0,1,.13.05l.13,0h0c.11,0,.17-.06.18-.14a.31.31,0,0,1,.11-.21l.1.1a.53.53,0,0,0,.11.11s0,0,0,0l0,.06h0l0,0s0,0,0,0h0L24.24,8l.1-.06a1.12,1.12,0,0,0,.06.35,1.73,1.73,0,0,0,.17.33l.08-.06L24.57,8h.06s0,0,0,0,.05,0,.05,0,.05.08.08.17a.85.85,0,0,1,.05.18h.07s0,0,.05-.07L25,8.27l.51-.08a.53.53,0,0,0-.05.14c0,.07,0,.12,0,.14s0,0,0,0l0,.05.16,0h.16a.09.09,0,0,1-.06.06l-.12,0a.34.34,0,0,0-.12.06.22.22,0,0,0-.08.16.5.5,0,0,0-.05-.15.58.58,0,0,0-.07-.14.23.23,0,0,0,0-.09l0-.08c0-.05-.06-.06-.08,0a.13.13,0,0,1-.09,0,.65.65,0,0,0,.11.31.66.66,0,0,1,.1.3h-.1l0,.07.21.15h0l0,0V9.18l0,0a.14.14,0,0,1,0-.06,0,0,0,0,1,0,0l0,0h0a.13.13,0,0,1,.15.1.22.22,0,0,1,0,.19c0-.11.05-.18.1-.2A.62.62,0,0,1,26,9L26,9.3l.22-.05s.09,0,.19,0l-.05,0-.06,0v.05c0,.08.07.12.17.13h.23s0,0,0,0l0,.08s0,.05,0,.05h-.06l-.07,0h0l-.07,0-.06,0-.06,0s-.05,0-.06.05a1.74,1.74,0,0,1,.36.31c0,.06-.1.09-.15.08h-.18s0,0,0,0v0l.07.08.06.07a.39.39,0,0,0,.11.09c.07,0,.1.06.1.07a.27.27,0,0,1,0,.14l-.06.12c0-.05-.07-.07-.14-.06l-.06,0s0,0,0,.07.07,0,.07.07l0,.1a.17.17,0,0,1,0,.15.18.18,0,0,1-.1.07l-.16,0-.16,0a.08.08,0,0,0,0,.13c0,.06,0,.1,0,.13a.26.26,0,0,0-.1-.09.24.24,0,0,0-.12,0c-.11,0-.17,0-.19.11a.25.25,0,0,1-.11.12l-.13,0a.31.31,0,0,1-.1-.05l-.1,0,0,.07.06,0a.35.35,0,0,0-.05.18A1,1,0,0,0,25,12a.4.4,0,0,1,0,.15.33.33,0,0,1-.13.14.25.25,0,0,0,0-.21.17.17,0,0,0-.18-.07.14.14,0,0,0-.11.07.47.47,0,0,0,0,.14s0,0,0-.05a.08.08,0,0,1,0,0,.06.06,0,0,1,0-.06v0a.23.23,0,0,1,0-.09.44.44,0,0,0,0-.09.05.05,0,0,0-.07-.05h-.09a.62.62,0,0,0-.19.09C24,11.92,24,12,24,12l0,0s.05,0,.1,0a.21.21,0,0,1,.1.06.45.45,0,0,1,0,.16.44.44,0,0,0,0,.18s0,0,0,.05l0,0v0s0,0,0,0l-.18.15-.14.1-.09,0a.24.24,0,0,1,.05-.19.23.23,0,0,0,.05-.2c0-.08,0-.11-.07-.11l-.16,0a.2.2,0,0,0,0,.08.31.31,0,0,1,0,.08.92.92,0,0,1,0,.22.59.59,0,0,0,0,.14h0a1.26,1.26,0,0,0-.05-.15c0-.07-.07-.09-.14-.06a1.26,1.26,0,0,0-.23.08l-.24.1,0,0,0,0h-.1a.35.35,0,0,0-.19-.26s0,0-.06,0l.05.29c-.08,0-.12,0-.15-.1a.13.13,0,0,0-.15-.1.53.53,0,0,1,0,.14v.15a.58.58,0,0,0,.07.11.3.3,0,0,0,.09.1l.1,0h.14l.41,0a2.58,2.58,0,0,1,.39,0,2.1,2.1,0,0,0,.36,0,1.11,1.11,0,0,1,.37,0l.15,0,.1,0a.41.41,0,0,1,0,.09s0,.08.05.09h.11a.36.36,0,0,0,.14,0H25l.15-.05a.38.38,0,0,1,.16-.06.93.93,0,0,1,.29,0,1.11,1.11,0,0,0,.31,0c0,.08,0,.12.08.13h.14c.08,0,.13,0,.14-.06s0,0,.09-.06.07,0,.08,0l0,.07a.11.11,0,0,0,0,.06.07.07,0,0,0,.08,0c.07,0,.1-.05.07-.11s0-.1.07-.11h.37a.1.1,0,0,1,.08.09c0,.05,0,.07.1.06h0l.26-.33.53-.08,0,.07a.21.21,0,0,0,.21.08.27.27,0,0,1,.23.08l-.12.1a1.34,1.34,0,0,1,0,.2,1,1,0,0,0,0,.17c0,.07,0,.12,0,.16s0,.09,0,.09,0,0-.08,0v.08l.16,0,.05.31h-.05l0,0,0,0a.54.54,0,0,0-.13-.06l-.13,0,0,0a.22.22,0,0,0,0,.09h.08a.06.06,0,0,1,0,0,.17.17,0,0,1,0,.14.19.19,0,0,1-.12.07h-.49l0,0a0,0,0,0,0,0,0l-.09,0-.09,0,0-.21a1.14,1.14,0,0,0-.5.26l0-.27h-.07l0,.09a.46.46,0,0,0,0,.1l-.29.05-.06.11-.05-.05h-.23s0,0,0-.09a.23.23,0,0,0,0-.09h-.18l0,0,0,0-.12,0-.12,0,0-.15s0,0,0,.05,0,0,0,0h0l-.05,0s0,0,0,0h-.06a.29.29,0,0,0-.09.15,1,1,0,0,0,0,.17.54.54,0,0,1,0,.15s0,.06-.06.06-.09,0-.1,0a.3.3,0,0,1,0-.1.36.36,0,0,0,0-.11s-.05,0-.11,0ZM20,10.8a0,0,0,0,0,0,.06s0,.05,0,.05,0,0,0-.06A0,0,0,0,0,20,10.8Zm.61.45a0,0,0,0,0,0,.06s0,0,0,0,0,0,0-.06A0,0,0,0,0,20.56,11.25Zm0-.31a.19.19,0,0,0,0,.15.15.15,0,0,0,.13-.1Zm.16,1s0,0,0,0,0,0,0,0l0,0S20.72,12,20.72,12Zm0-1.46q-.07,0-.09.12a1,1,0,0,0,0,.14s.06,0,.13-.08.09-.09.09-.11v0l-.06,0Zm.08.22s0,0,0,.07,0,.07,0,.06a.1.1,0,0,0,0-.07A.07.07,0,0,0,20.84,10.72Zm.66,1.72s0,0,0,.07a.06.06,0,0,0,0,.06l.06,0,.08.05s.05-.06,0-.13l0-.13a.34.34,0,0,0-.06-.16.44.44,0,0,1-.07-.17.32.32,0,0,1,0-.14.14.14,0,0,1,.11-.07h0s0,0,.06.06l.08,0h.06l0,0,.06,0,.12,0c.07,0,.1,0,.11-.05s0,0,0-.12a.84.84,0,0,1,0-.12l.1,0a.28.28,0,0,1,.12-.05h.16l.09,0a.51.51,0,0,0,.24-.14.66.66,0,0,1,.2-.17.59.59,0,0,0,.09.18.18.18,0,0,0,.17,0l.13,0a.14.14,0,0,0,.12-.09l0-.48.21-.11.21-.08h0a.37.37,0,0,1,.11,0l.09,0h.06a.05.05,0,0,0,0,0,.13.13,0,0,0,0-.05,1.3,1.3,0,0,0,0-.18.77.77,0,0,0,0-.18l.2-.05.2-.07.18-.06a.27.27,0,0,1,.12,0l-.08-.49s0,.06.06.05a.55.55,0,0,0,.17.1.24.24,0,0,0,.1.05l.05-.07a1.68,1.68,0,0,1-.22-.32.7.7,0,0,0-.29-.27l-.27-.14a.69.69,0,0,0-.29-.07.49.49,0,0,0-.27.13l-.22.22-.23.22a.86.86,0,0,1-.35.14h0s-.07,0-.14,0l-.12,0H23a.54.54,0,0,0,0,.08.53.53,0,0,1,0,.11l-.1.14,0,0s0,0,0,0h0l-.05.08a.25.25,0,0,1-.05.07h-.12l-.12,0s0,0,0,.08a.51.51,0,0,0,0,.1s0,0,0,0a.08.08,0,0,0,0,0l-.05-.06a1.14,1.14,0,0,0-.41.85.1.1,0,0,0-.15.06.93.93,0,0,0-.07.15.68.68,0,0,1,0,.12.43.43,0,0,0,0,.13l-.1,0-.17-.27s0,0,0,.06a.16.16,0,0,0,0,.07.36.36,0,0,0,.07.2.43.43,0,0,1,.06.19,0,0,0,0,1,0,0V12a.17.17,0,0,1-.09.06l-.1,0,.06.4-.15,0v.07a.33.33,0,0,0,.15-.05A.43.43,0,0,1,21.5,12.44Zm-.11.38s0,0,0,0,0,0,0,0l0,0S21.39,12.84,21.39,12.82Zm-.48-2.89,0,0,0,0h.26c0-.1,0-.15-.11-.14h0l-.09,0Zm.21.16s-.05,0,0,.05,0,.06.05,0,0,0,0-.06S21.14,10.08,21.12,10.09ZM21,9.22a.27.27,0,0,0,.12.17.33.33,0,0,0,.19,0c0-.11,0-.18-.09-.2A.39.39,0,0,0,21,9.22Zm.74,3.9s0,0,0,.06,0,.06,0,.06a.05.05,0,0,0,0-.07S21.78,13.11,21.75,13.12Zm0-.73s0,0,0,.07,0,.07.06.06,0,0,0-.07S21.79,12.38,21.76,12.39Zm-.42-2.77s0,.05.07.05a.08.08,0,0,0,.05-.09v-.1l-.09,0a.08.08,0,0,0,0,.09Zm.14,1s0,0,.07,0v0s0,0,0,0,0,0,0,0v.07Zm.89,4.2s-.06,0-.05.07v.06l.15-.07a.13.13,0,0,0,.06-.15h0v0a.85.85,0,0,0-.13-.06l-.12,0-.05.07v.06s0,0,0,0l.06.05S22.35,14.78,22.37,14.77Zm0,.25s-.05,0,0,.06,0,.05.05.05,0,0,0-.06S22.38,15,22.35,15Zm-.77-5h.06l0-.18h-.06ZM22,12.12s0,0,0,0,0,0,0,0,0,0,0,0S22,12.15,22,12.12Zm.45,3s0,0,0,0,0,0,0,0S22.48,15.14,22.42,15.12Zm-.78-5.49s0,0,0,0,0,0,0,0,0,0,0,0S21.64,9.65,21.64,9.63Zm.67,4.78.11,0v0h-.1Zm.29.76s0,0,0,0,0,0,0,0h0Zm0-.26s0,0,0,.07,0,.07.05.06,0,0,0-.07S22.65,14.9,22.62,14.91Zm-.21-1.41h.06v-.06H22.4Zm-.59-4.25s0,0,0,.07,0,0,.05,0,.05,0,0-.07S21.85,9.24,21.82,9.25Zm.07.05s0,0,0,.07,0,.06.05.05,0,0,0-.07S21.92,9.3,21.89,9.3Zm.18.75s0,0,0,.07,0,.05.06.05,0,0,0-.07S22.1,10,22.07,10.05Zm.7,4.6.12,0,0,0s0,0,0,0h0s0,0,0,0Zm-.7-5.44s0,0,0,.09l.05.09h.06l.17-.09v0a.37.37,0,0,0-.08-.15.33.33,0,0,0-.14-.1.93.93,0,0,1,0,.1C22.07,9.16,22.06,9.19,22.07,9.21Zm1.1,5.36a.33.33,0,0,0-.12,0,.16.16,0,0,0,0,.12l.19,0Zm.12-.05v.07s0,.05,0,.07l0,.08h.08l-.06-.38C23.31,14.37,23.28,14.42,23.29,14.52Zm-.77-5.38s0,0,0,.07,0,.06,0,0,.06,0,.05-.07S22.56,9.14,22.52,9.14Zm.1.65a0,0,0,0,0,0,.06s0,.05,0,.05.05,0,.05-.06S22.66,9.79,22.62,9.79Zm0-1c-.05,0-.08,0-.1.11l.12,0Zm.1.91c0-.06,0-.11,0-.16a.86.86,0,0,0,0-.15V9.32a.09.09,0,0,0-.08-.07Zm.61,2.85,0-.05-.12,0ZM23.7,14s-.05,0,0,.07,0,.06.05.05.05,0,0-.07S23.73,14,23.7,14Zm-.2-1.72a0,0,0,0,0,0,0s0,0,0,0S23.49,12.37,23.5,12.31Zm.42,2.77s0,0,0,0,0,0,0,0S23.91,15.14,23.92,15.08ZM23,9.25l.13.14a.15.15,0,0,0,.16,0h.1s0,0,0-.07a.05.05,0,0,1,0,0s0,0,0,0,0,0-.09,0a.14.14,0,0,1-.09,0s0,0,0,0,0-.05,0-.05h-.07l0,0A0,0,0,0,0,23,9.25Zm1,5s0,0-.06,0-.06,0-.05,0a.09.09,0,0,0,.07,0S24,14.25,24,14.23Zm.19,0a.17.17,0,0,0,.11-.08l-.12,0Zm-.27-3H24v-.06h-.06Zm.18.39v-.06h-.06Zm-.18-.84,0,.13.07.16a.71.71,0,0,0,.1.14.17.17,0,0,0,.13.05v0l0,0,0,0a.35.35,0,0,0,0-.15l0-.16a.18.18,0,0,0-.12.09.64.64,0,0,0-.1-.13A.15.15,0,0,0,23.94,10.77Zm-.05-2.08a.64.64,0,0,1,0,.09.11.11,0,0,0,.09.08s.05,0,.05-.07v0s0-.07-.06-.07Zm.43,2.72h.06v-.07h-.06Zm.54,2.74a.57.57,0,0,1,.25.14l.05,0,0,0a.78.78,0,0,0,0-.13c0-.07,0-.11,0-.13a.34.34,0,0,0-.15.07Zm.15,1h.08A.14.14,0,0,0,25,15Zm.06-.75a1.24,1.24,0,0,0,0,.16.11.11,0,0,0,.14.08h0a.87.87,0,0,0-.07-.17A.14.14,0,0,0,25.07,14.41Zm-.41-3a.49.49,0,0,0,0,.12c0,.07,0,.1.1.1s.07-.06.06-.12l0-.13Zm.16.47v-.13l-.07.06Zm-.24-1.52,0,0,0,0,0,0a.17.17,0,0,1,.14-.16.39.39,0,0,1,.21,0,.11.11,0,0,0-.1,0l-.09,0-.14,0C24.6,10.28,24.57,10.31,24.58,10.36Zm.48,0-.07,0a.08.08,0,0,0,0,.08l.21,0Zm-.34-1.57.1,0V8.73l-.1,0Zm1,6.16s0,0,0,.07,0,.07,0,.07a.06.06,0,0,0,0-.08S25.8,15,25.76,15Zm-.36-3.61.06-.08-.12,0Zm-.11-.72s0,0,0,.07,0,.06,0,.06.05,0,.05-.07S25.33,10.64,25.29,10.64Zm0-.23s0,0,0,0a0,0,0,0,0,0,0,.06.06,0,0,0,.05,0S25.32,10.43,25.33,10.41Zm0,.72h.08v-.06h-.08Zm.27.13s0,0,0,0,0,0,0,0a0,0,0,0,0,0,0S25.63,11.28,25.63,11.26Zm-.11-.34h.06v-.06ZM25.43,10a0,0,0,0,0,0,.06s0,.05.05.05a.05.05,0,0,0,0-.06S25.46,10,25.43,10Zm.08.21a.45.45,0,0,0,.12.25.71.71,0,0,1,.15.22.16.16,0,0,0,0-.09h0v0a.22.22,0,0,0,0-.1.27.27,0,0,1,0-.08l-.06-.14S25.61,10.16,25.51,10.18Zm.33.81s-.05,0,0,.06,0,0,.05,0,0,0,0-.06S25.86,11,25.84,11ZM25.66,9.5s0,0,0,.08,0,.06,0,0a.08.08,0,0,0,0-.06A.09.09,0,0,0,25.66,9.5Zm0-.23s0,0,0,.07,0,.05.05.05,0,0,0-.07S25.71,9.26,25.68,9.27Zm.41,1v-.06l-.18,0ZM26.74,14q-.16,0-.15.15c.08,0,.13-.06.18-.15ZM26,9.39s0,0,0,.07,0,.07.05.06,0,0,0-.07S26,9.38,26,9.39Zm.07,0s0,0,0,.07,0,.05.05.05,0,0,0-.07S26.11,9.43,26.08,9.44Zm1,4.79,0,0,0,0s.06,0,.1-.06l.07-.09-.07-.05h-.06l-.06,0a.15.15,0,0,0-.06,0v0Zm.2.52V14.7h-.06Zm-.06-.82a.05.05,0,0,0,0,.06s0,0,.06,0,0,0,0-.06S27.21,13.93,27.18,13.93Zm.19,0s-.06,0-.05.07,0,.06.07.05,0,0,0-.06S27.39,14,27.37,14Zm.54.77c-.08,0-.11,0-.12.08h.06l.06,0s0,0,0,0Z"/><path d="M33.3,14a.28.28,0,0,0,0,.11.44.44,0,0,0,0,.09s0-.06-.06-.06l-.15,0-.15,0-.16,0-.22,0h0l-.06,0h-.06l0,0,0,0,0,0v0a.24.24,0,0,0,0-.11c0-.05-.05-.09-.07-.1a.4.4,0,0,0-.16,0h-.15l0-.14-.21.21s0,0-.05,0l-.08-.08s0,0,0-.12,0-.09-.07-.1-.07.06-.07.09l0,.09a.15.15,0,0,1,0,.09.21.21,0,0,1-.15.06.55.55,0,0,1-.36,0,.27.27,0,0,1-.1-.17,1.49,1.49,0,0,1,0-.21.13.13,0,0,0-.12-.11h-.17l-.2,0,.05-.15a.49.49,0,0,1-.27-.05.65.65,0,0,1-.21-.16l-.18-.22-.16-.22-.09-.09a.66.66,0,0,0-.12-.12,1.43,1.43,0,0,1-.3-.38l-.18-.39,0,0,0,0s0-.12-.08-.23a1.65,1.65,0,0,1-.05-.23l0-.1a.74.74,0,0,1,0-.21.74.74,0,0,0,0-.21v-.08l0-.05s0,0,0-.06l0-.27a1,1,0,0,1,0-.22c0-.11,0-.23,0-.34a1.43,1.43,0,0,1,.05-.32.17.17,0,0,1,.13-.15.28.28,0,0,1,0,.13.17.17,0,0,0,0,.12h.18a.18.18,0,0,0,.16-.09s0-.06,0-.13l0-.11h0l0,.13h.18l0,0,0,0,.12-.05a.27.27,0,0,0,.11,0V9a.79.79,0,0,0-.12-.3.62.62,0,0,1-.13-.31.32.32,0,0,1,.17,0h.17c.06,0,.1,0,.1-.08a.13.13,0,0,0-.11-.06.19.19,0,0,1-.13,0l0,0a.26.26,0,0,1,0-.16.51.51,0,0,0,0-.17l.09,0,.09,0h.2c.1,0,.16,0,.17.08s0,0,0,.07a.1.1,0,0,0,0,.06v.05A1.36,1.36,0,0,0,30.2,8a.33.33,0,0,0,.22-.17.31.31,0,0,0,0-.18c0-.1,0-.15.07-.16s.08.14.19.13l.11,0a.13.13,0,0,0,.1-.07.15.15,0,0,0,0-.09l0,0-.21,0s0,0,0-.05a.11.11,0,0,0,0,0,.41.41,0,0,1,0-.1s0-.06-.06-.06l0,0h0l.09,0,.11,0,.16,0a.18.18,0,0,1,.16.06,1.55,1.55,0,0,1,.08.23.4.4,0,0,0,.16.21h.06l0-.13h.05l.07.06.08,0h0l.15-.05L32,7.58v0s0-.08-.11-.08a.34.34,0,0,1-.14,0h0a0,0,0,0,1,0,0,.18.18,0,0,1,0-.09l0-.07.13,0a.47.47,0,0,0,.14,0h0c.11,0,.17-.06.18-.14A.36.36,0,0,1,32.4,7a1.08,1.08,0,0,1,.11.11c.05,0,.08.09.11.1s0,0,0,0l0,.06h0v0l0,0s0,0,0,0l-.08-.49.1-.06a1.12,1.12,0,0,0,.06.35,2.59,2.59,0,0,0,.17.33l.08-.06-.08-.56h.09a.05.05,0,0,1,.06,0,.53.53,0,0,1,.08.17c0,.09,0,.16.05.19h.06a.23.23,0,0,1,.05-.07l0-.09L34,6.9S34,7,34,7a.37.37,0,0,0,0,.14s0,0,0,.05l0,0a.4.4,0,0,0,.15,0h.16a.09.09,0,0,1-.06.06l-.11,0L34,7.43a.22.22,0,0,0-.07.16l-.06-.15-.06-.14,0-.09a.56.56,0,0,0,0-.08s-.06-.06-.07,0a.2.2,0,0,1-.1,0,.61.61,0,0,0,.11.31.7.7,0,0,1,.11.3h-.11l0,.07.21.15h0s0,0,0,0V7.89l0,0a.09.09,0,0,1,0-.06,0,0,0,0,1,0,0l0,0h0c.07,0,.12,0,.16.09a.33.33,0,0,1,0,.19c0-.11,0-.17.09-.2a.77.77,0,0,1,.24-.07l0,.29.22,0s.1,0,.2,0l0,0-.07,0v0c0,.08.07.12.17.13h.23s0,0,0,0l0,.08s0,0,0,0a.06.06,0,0,1-.06,0H35l0,0-.07,0-.06,0-.06,0a.12.12,0,0,0-.05.05,2,2,0,0,1,.35.31c0,.06-.1.09-.15.08h-.17a.13.13,0,0,0,0,.05v0l.07.09.06.06a.5.5,0,0,0,.12.09c.06,0,.09.06.09.07a.27.27,0,0,1,0,.14.26.26,0,0,1-.06.12c0-.05-.06-.07-.13-.06l-.06,0s0,0,0,.07.07,0,.07.07l0,.1a.24.24,0,0,1,0,.16l-.11.07a.65.65,0,0,1-.16,0l-.16,0c-.06,0-.07.07,0,.12s0,.1,0,.13a.26.26,0,0,0-.1-.09h-.11c-.12,0-.18.05-.2.11a.19.19,0,0,1-.11.12l-.13,0-.1,0-.1-.05,0,.07.06.05a.49.49,0,0,0,0,.19c0,.05,0,.11,0,.16a.4.4,0,0,1,0,.15.33.33,0,0,1-.13.14.25.25,0,0,0,0-.21.17.17,0,0,0-.18-.07.13.13,0,0,0-.1.07.46.46,0,0,0,0,.14.17.17,0,0,0,0-.05s0,0,0,0V10.7a.23.23,0,0,1,0-.09l0-.09s0-.06-.07,0h-.09a.56.56,0,0,0-.2.09c-.08.06-.12.11-.11.16l0,0a.19.19,0,0,0,.1.05c.06,0,.09,0,.1.06s0,.06,0,.16,0,.17,0,.19l0,0,0,.05v0l0,0-.18.15a.71.71,0,0,1-.14.1l-.08,0a.21.21,0,0,1,0-.19.22.22,0,0,0,.05-.2c0-.08,0-.11-.07-.11l-.16,0s0,0,0,.08a.41.41,0,0,1,0,.08s0,.11-.05.22a.59.59,0,0,0,0,.14h0a1.26,1.26,0,0,0,0-.15c0-.07-.07-.09-.14-.06l-.23.08-.23.1a.1.1,0,0,1-.05,0l-.05,0h-.09a.36.36,0,0,0-.2-.26s0,0-.06,0l.05.29a.13.13,0,0,1-.15-.1.13.13,0,0,0-.15-.1.53.53,0,0,1,0,.14.58.58,0,0,0,0,.15A.31.31,0,0,0,31,12a.36.36,0,0,0,.09.09l.1,0h.14l.41,0a2.58,2.58,0,0,1,.39,0,2.22,2.22,0,0,0,.37,0,1.55,1.55,0,0,1,.37,0l.14,0c.07,0,.1,0,.1,0s0,0,0,.08a.31.31,0,0,0,0,.09h.11a.36.36,0,0,0,.14,0h.06a.33.33,0,0,0,.15,0,.44.44,0,0,1,.16-.06.93.93,0,0,1,.29,0,1.1,1.1,0,0,0,.31,0c0,.08,0,.13.08.13h.14c.08,0,.13,0,.14-.06s0-.05.09-.06.07,0,.08,0a.09.09,0,0,1,0,.07.07.07,0,0,0,0,.06s0,0,.08,0,.09,0,.06-.11,0-.1.07-.11h.37a.1.1,0,0,1,.08.09s0,.07.1.07h0l.26-.33.53-.08,0,.07a.21.21,0,0,0,.21.08.27.27,0,0,1,.23.08l-.12.1a.67.67,0,0,1,0,.2,1,1,0,0,0,0,.17.63.63,0,0,0,0,.16c0,.06,0,.09,0,.09a.14.14,0,0,1-.09,0v.08l.17,0,0,.31h-.05l0,0,0,0-.14-.06-.13,0,0,0a.14.14,0,0,0,0,.09h.08a.11.11,0,0,1,0,.05.23.23,0,0,1,0,.14.19.19,0,0,1-.12.07h-.07a.81.81,0,0,0-.17,0h-.25l0,0v0l-.09,0-.08,0,0-.21a1.2,1.2,0,0,0-.5.26l0-.27h-.06a.22.22,0,0,0,0,.09.46.46,0,0,0,0,.1l-.28,0-.06.11s0,0-.06-.05h-.23s0-.05,0-.09,0-.07,0-.09H34.4l0,0,0,0-.12,0-.12,0,0-.15a.11.11,0,0,0,0,0s0,0,0,0h0l-.05,0,0,0h-.06a.28.28,0,0,0-.08.15,1,1,0,0,0,0,.17l0,.15s0,.06-.07.06-.08,0-.1,0a1,1,0,0,1,0-.1.36.36,0,0,0,0-.11s-.05,0-.11,0Zm-4.85-4.5s-.05,0,0,.06,0,0,.05,0,0,0,0-.06S28.47,9.51,28.45,9.51Zm.61.45s0,0,0,.06,0,.05.05.05,0,0,0-.06S29.08,10,29.06,10Zm0-.31a.16.16,0,0,0,0,.15.14.14,0,0,0,.12-.1Zm.15,1s0,0,0,0,0,0,0,0l0,0S29.21,10.69,29.21,10.67Zm0-1.46q-.08,0-.09.12a1,1,0,0,0,0,.14s.06,0,.13-.08.09-.09.09-.11v0l-.07,0S29.26,9.2,29.25,9.21Zm.08.22s0,0,0,.07,0,.08,0,.06a.07.07,0,0,0,0-.07A.07.07,0,0,0,29.33,9.43ZM30,11.15a.11.11,0,0,1,0,.07.06.06,0,0,0,0,.06s0,0,.06,0l.08,0s.06-.06.05-.13l0-.13a.48.48,0,0,0-.07-.16.43.43,0,0,1-.06-.17.22.22,0,0,1,0-.14.13.13,0,0,1,.1-.07h0l.06.06.08,0h.06l0,0,.06,0a.35.35,0,0,1,.12-.05c.07,0,.1,0,.11,0s0-.05,0-.12a.22.22,0,0,1,0-.12l.09,0a.28.28,0,0,1,.12-.05h.16l.1,0a.49.49,0,0,0,.23-.14,1.12,1.12,0,0,1,.2-.17.57.57,0,0,0,.1.18s.08,0,.16,0l.13,0c.07,0,.11,0,.12-.08l0-.49.2-.11.22-.08h0l.1,0,.1.05h.06l0,0,0,0s0-.08,0-.18a.77.77,0,0,0,0-.18l.2,0,.2-.07.18-.06.12,0-.07-.49s0,.06,0,0a.69.69,0,0,0,.17.1.24.24,0,0,0,.1,0l0-.07a1.68,1.68,0,0,1-.22-.32.7.7,0,0,0-.29-.27l-.27-.14a.65.65,0,0,0-.28-.07.49.49,0,0,0-.28.13l-.21.22a1.7,1.7,0,0,1-.24.22.81.81,0,0,1-.34.14h0a.22.22,0,0,1-.14,0L31.5,8.2h-.06a.32.32,0,0,1,0,.08.89.89,0,0,0,0,.11l-.11.14,0,0,0,0h0l-.05.08a.25.25,0,0,1,0,.07l-.12,0-.12,0s0,0,0,.08,0,.09,0,.1l0,0,0,0L30.72,9a1.18,1.18,0,0,0-.41.86.09.09,0,0,0-.15.05,1.13,1.13,0,0,1-.07.15.68.68,0,0,1,0,.12c0,.07,0,.11,0,.13l-.11,0L29.8,10v.14a.47.47,0,0,0,.07.19.58.58,0,0,1,.07.19,0,0,0,0,1,0,0v.08a.18.18,0,0,1-.08.06.2.2,0,0,1-.11,0l.06.41-.15,0v.07a.43.43,0,0,0,.16,0A.38.38,0,0,1,30,11.15Zm-.12.38s0,0,0,0,0,0,0,0,0,0,0,0S29.89,11.55,29.88,11.53ZM29.4,8.64l0,0,0,0h.27c0-.1-.06-.15-.12-.14h0l-.09,0Zm.21.16s-.05,0,0,.06,0,.05.05,0,0,0,0-.06S29.63,8.79,29.61,8.8Zm-.1-.87a.2.2,0,0,0,.12.17.32.32,0,0,0,.19,0c0-.11-.05-.18-.1-.2A.36.36,0,0,0,29.51,7.93Zm.73,3.9s0,0,0,.06,0,.06,0,.06,0,0,0-.07S30.27,11.82,30.24,11.83Zm0-.73s0,0,0,.07,0,.07.05.06,0,0,0-.07S30.28,11.09,30.25,11.1Zm-.42-2.77s0,.06.07.05A.1.1,0,0,0,30,8.29a.46.46,0,0,1,0-.1l-.09,0a.08.08,0,0,0,0,.09Zm.15.95s0,0,.06,0V9.27l0,0,0,0v.07Zm.88,4.2s-.06,0-.05.07v.06l.15-.07A.12.12,0,0,0,31,13.4s0,0,0,0h0v0l-.12-.06-.13,0-.05.07v.06s0,0,0,0l.06,0S30.84,13.49,30.86,13.48Zm0,.26s-.05,0,0,.06,0,0,.05,0,0,0,0-.06S30.87,13.73,30.84,13.74Zm-.76-5h.06l0-.19h-.06Zm.38,2.11s0,0,0,0a0,0,0,0,0,0,.06S30.45,10.86,30.46,10.83Zm.45,3s0,0,0,0a0,0,0,0,0,0,0S31,13.85,30.91,13.83Zm-.78-5.49s0,0,0,0,0,0,0,0l0,0S30.13,8.37,30.13,8.34Zm.68,4.78.1,0v0H30.8Zm.28.76s0,0,0,0,0,0,0,0h0S31.09,13.89,31.09,13.88Zm0-.26s0,0,0,.07,0,.07.05.06.05,0,0-.07S31.14,13.61,31.11,13.62Zm-.21-1.41H31v-.06h-.06ZM30.32,8s-.05,0,0,.07,0,.06.06.05,0,0,0-.07S30.35,8,30.32,8Zm.07,0a.05.05,0,0,0,0,.07s0,.06.06.05,0,0,0-.07S30.42,8,30.39,8Zm.17.75s0,0,0,.07,0,.05,0,.05,0,0,0-.07S30.59,8.75,30.56,8.76Zm.7,4.6.12,0,0,0h-.07s0,0,0,0Zm-.7-5.44a.1.1,0,0,0,0,.09l.05.09h.06L30.87,8V8a.28.28,0,0,0-.08-.15.24.24,0,0,0-.14-.09.88.88,0,0,1-.05.1A.23.23,0,0,0,30.56,7.92Zm1.11,5.36-.13.05a.12.12,0,0,0,0,.12l.18,0Zm.11,0v.06l0,.07,0,.09.08,0-.06-.37C31.8,13.08,31.77,13.13,31.78,13.24ZM31,7.85s0,0,0,.07S31,8,31,8s.06,0,0-.07S31.05,7.85,31,7.85Zm.1.66s0,0,0,.05,0,0,0,0,.06,0,.05-.06S31.15,8.5,31.11,8.51Zm0-1a.14.14,0,0,0-.11.11l.12,0Zm.09.91a1,1,0,0,0,0-.16.86.86,0,0,0,0-.15V8A.08.08,0,0,0,31.11,8Zm.62,2.85,0,0-.13,0Zm.39,1.46s0,0,0,.07,0,.06.06,0,0,0,0-.07S32.22,12.74,32.19,12.74ZM32,11s0,0,0,0,0,0,0,0S32,11.08,32,11Zm.42,2.77s0,0,0,0,0,0,0,0S32.4,13.85,32.41,13.79ZM31.53,8c0,.06.09.1.13.15a.16.16,0,0,0,.16,0h.09A.07.07,0,0,0,32,8.07l0,0s0,0,0,0H31.8l-.09,0s0,0,0-.05,0,0,0,0h-.08l0,0S31.52,8,31.53,8Zm1,5s0,0,0,0-.07,0-.05,0a.06.06,0,0,0,.06,0S32.52,13,32.51,12.94Zm.19,0a.17.17,0,0,0,.12-.08l-.13,0Zm-.27-3h.06V9.86h-.06Zm.18.39v-.06h-.06Zm-.17-.84a.45.45,0,0,0,0,.13l.07.16a.71.71,0,0,0,.1.14.17.17,0,0,0,.13.05l0,0,0,0,0,0a1.14,1.14,0,0,0,0-.15l0-.16a.2.2,0,0,0-.13.09.64.64,0,0,0-.1-.13A.16.16,0,0,0,32.44,9.48ZM32.38,7.4s0,0,0,.1a.1.1,0,0,0,.08.07s.06,0,0-.07v0a.07.07,0,0,0-.05-.07A.17.17,0,0,0,32.38,7.4Zm.43,2.72h.06V10H32.8Zm.54,2.74a.69.69,0,0,1,.26.14.05.05,0,0,0,0,0l0,0a.9.9,0,0,1,0-.13.38.38,0,0,0,0-.13.34.34,0,0,0-.15.07Zm.16,1h.07a.14.14,0,0,0-.09-.11Zm.05-.75a.94.94,0,0,0,0,.16.12.12,0,0,0,.14.08h0a1.22,1.22,0,0,0-.07-.17A.14.14,0,0,0,33.56,13.12Zm-.41-3a.5.5,0,0,1,0,.12c0,.07,0,.1.1.1s.07-.06.06-.12l0-.13Zm.17.47,0-.12-.07,0Zm-.25-1.52,0,0,0,0,0,0A.15.15,0,0,1,33.28,9a.53.53,0,0,1,.21,0,.1.1,0,0,0-.1-.05L33.3,9l-.13,0C33.1,9,33.06,9,33.07,9.07Zm.49,0-.08.06s0,0,0,.07l.21,0Zm-.35-1.57.1,0V7.44l-.11,0Zm1,6.16s0,0,0,.07,0,.07,0,.07a.06.06,0,0,0,0-.08C34.32,13.69,34.29,13.68,34.25,13.68Zm-.36-3.61L34,10l-.13,0Zm-.11-.72s0,0,0,.07,0,.06,0,.06.06,0,.05-.07A.07.07,0,0,0,33.78,9.35Zm0-.23s0,0,0,0,0,0,0,0,0,0,0,0A0,0,0,0,0,33.82,9.12Zm0,.72h.08V9.77h-.07Zm.27.13s0,0,0,0,0,0,0,0a0,0,0,0,0,0,0S34.13,10,34.12,10ZM34,9.63h.06V9.56Zm-.08-1s0,0,0,.06,0,0,0,0,.05,0,0-.06S34,8.68,33.93,8.68Zm.07.21a.45.45,0,0,0,.12.25,1,1,0,0,1,.16.22.23.23,0,0,0,0-.09h0v0a.33.33,0,0,0,0-.1.18.18,0,0,1,0-.08l-.06-.14S34.1,8.87,34,8.89Zm.33.81a.05.05,0,0,0,0,.06s0,.06.06.05,0,0,0-.06S34.35,9.7,34.33,9.7Zm-.18-1.49s0,0,0,.08,0,.06,0,.05a.08.08,0,0,0,0-.07A.09.09,0,0,0,34.15,8.21Zm0-.23s0,0,0,.07,0,0,0,0a.05.05,0,0,0,0-.07S34.21,8,34.18,8Zm.4,1V8.94l-.18,0Zm.66,3.71q-.18,0-.15.15a.26.26,0,0,0,.18-.15ZM34.5,8.1s0,0,0,.07,0,.07.05.07,0,0,0-.08S34.53,8.09,34.5,8.1Zm.07.05s0,0,0,.07,0,.06.05,0,0,0,0-.07S34.6,8.15,34.57,8.15Zm1,4.79,0,.05,0,0A.12.12,0,0,0,35.7,13l.07-.09-.07,0h-.06l-.06,0a.11.11,0,0,0,0,0v0Zm.21.52v-.05h-.06Zm-.07-.82a0,0,0,0,0,0,.06s0,.06,0,.05,0,0,0-.06A.06.06,0,0,0,35.67,12.64Zm.19,0s0,0,0,.07,0,.06.07,0,0,0,0-.06S35.88,12.66,35.86,12.66Zm.54.77c-.07,0-.11,0-.11.08h.06l0,0s0,0,0,0Z"/><path d="M40,20.25a2.75,2.75,0,0,1-.14-.34,2.13,2.13,0,0,1-.09-.27c0-.09-.05-.17-.07-.26l-.08-.33a2.3,2.3,0,0,1,0-.59,1.68,1.68,0,0,1,0-.29.79.79,0,0,0,0-.3l0-.14s0,0-.06,0h0a.78.78,0,0,1-.11-.35,1.34,1.34,0,0,0-.07-.38,2.48,2.48,0,0,1-.1-.54,3.32,3.32,0,0,0-.09-.55,9.55,9.55,0,0,1-.21-1.09c-.06-.29-.11-.59-.17-.88l-.15-.87c-.11-.86-.25-1.71-.41-2.54S37.88,8.85,37.77,8c0-.07,0-.17,0-.29s0-.24-.05-.36a2.31,2.31,0,0,0,0-.32l0-.15,0-.55a.31.31,0,0,0,.13-.09L38,6.05l.19-.18a.47.47,0,0,1,.22-.09h0a.87.87,0,0,0,.22,0l.29,0,.26,0,.11,0,.11.83.24.06a.16.16,0,0,0,0,.08l0,.06s0,0,0,0l-.08.11c0,.08,0,.12.07.14a.16.16,0,0,0,.12,0,.25.25,0,0,0,.22-.18c0-.11.08-.22.11-.32l.13.63.15.6s0,0,.06,0l.11.05h.07A.36.36,0,0,1,40.61,8s.07,0,.06-.07h0v0l0,0-.11-.1-.09-.08v0a.86.86,0,0,1,0-.15.78.78,0,0,0,0-.14s0-.12,0-.21,0-.22,0-.39l.26-.17c0-.08,0-.14,0-.16a.21.21,0,0,1,.1-.06l.13-.06s.08-.07.1-.15a.25.25,0,0,1,.17.11.63.63,0,0,1,.09.22,1.07,1.07,0,0,1,0,.25V7a.32.32,0,0,0,.22-.16.51.51,0,0,0,.09-.26l.11-1a1.24,1.24,0,0,1,.27,0,.7.7,0,0,0,.29,0s.08,0,.1,0a.16.16,0,0,0,0-.07.18.18,0,0,1,0-.07.19.19,0,0,1,.1,0c.13,0,.19,0,.19.07a1,1,0,0,0,0,.24c.1,0,.17,0,.19-.11a.23.23,0,0,1,.18-.1.61.61,0,0,1,.45.08,1.55,1.55,0,0,1,.32.31l.29.39a1.22,1.22,0,0,0,.36.32.32.32,0,0,1,0,.15.32.32,0,0,0,0,.15,1.72,1.72,0,0,0,0,.21q0,.15.09.33c0,.12.07.23.1.34l.06.22-.34.21a.15.15,0,0,0,.11.08l.14,0,.11,0a.11.11,0,0,1,.06.11.14.14,0,0,1-.09.15,1,1,0,0,1-.23.11,1.14,1.14,0,0,1-.25.06l-.15,0a.53.53,0,0,0,0,.11.26.26,0,0,0,0,.12l0,0h0l.09,0,.09,0s0,0,0,0l.05,0c0,.12,0,.22,0,.32a2,2,0,0,1,0,.25.26.26,0,0,1-.09.17.34.34,0,0,1-.2.1c0-.1,0-.2-.14-.3a.39.39,0,0,0-.29-.13l-.07.05-.1.11c0,.05-.06.09-.05.13s0,.08,0,.1l.12,0h.14a.12.12,0,0,1,.1,0,1.13,1.13,0,0,1,0,.19.8.8,0,0,0,0,.17,0,0,0,0,0,0,.05s0,0,0,0v.14h0a.79.79,0,0,1-.09.2c-.07.11-.14.23-.23.36s-.16.24-.24.35a.86.86,0,0,1-.14.19l-.1,0-.13.06a.26.26,0,0,0-.06.15,1.72,1.72,0,0,1-.07.21.57.57,0,0,1-.1.19.18.18,0,0,1-.17.06s0,0-.1-.07-.09-.08-.11-.08l-.12,0-.12.05h0l0,0a.23.23,0,0,0,0,.05l.06,0c.06.16,0,.27,0,.33a.46.46,0,0,1-.33.12s0,0-.1,0l-.09,0s0,.05,0,.11a.88.88,0,0,1,0,.16.32.32,0,0,1,0,.14s0,.07-.08.07a.17.17,0,0,1-.13,0,.28.28,0,0,1-.09-.1l-.1-.1a.16.16,0,0,0-.14,0,.25.25,0,0,0-.17.07A.2.2,0,0,0,41,13a.2.2,0,0,1,0,.11s-.06.06-.13.07a.42.42,0,0,1-.18,0l-.09-.1-.1-.09a.21.21,0,0,0-.16,0,.2.2,0,0,0-.19.16.7.7,0,0,0,0,.29,1.55,1.55,0,0,0,.06.31,1.06,1.06,0,0,1,0,.19q0,.15-.06.12s-.05,0-.11,0a.59.59,0,0,1,0,.11c0,.05,0,.08.1.08l.12-.06.09-.07a.83.83,0,0,0,0,.16.18.18,0,0,0,0,.1l.06.08a.33.33,0,0,1,0,.13v.07l-.08.1q-.06.09-.09.09a.2.2,0,0,1,.16.08.38.38,0,0,1,.06.18.22.22,0,0,1,0,.14c0,.05-.06.09-.13.15s.06.14.12.26l.13.24v.11a.24.24,0,0,1-.14.26l-.28.14v.05s0,.07.13.14.18.15.29.24a3.24,3.24,0,0,0,.35.21.39.39,0,0,0,.24.09l.07.52-.22,0-.23.05a.86.86,0,0,0-.19.11s-.06.1,0,.19a.18.18,0,0,0,.12.12l.24.12a.76.76,0,0,1,.25.2.66.66,0,0,1,.14.35c-.14,0-.21.06-.23.12a1.49,1.49,0,0,0,0,.31l0,.25s0,.05.07.13.06.11,0,.14,0,0,0,.05l-.06.05-.18,0a.31.31,0,0,0-.18,0,.15.15,0,0,0-.05.13c0,.06,0,.11,0,.16a.27.27,0,0,1,0,.12.26.26,0,0,1-.14.07.37.37,0,0,1-.19,0l-.14-.07a.76.76,0,0,0-.16-.06A.47.47,0,0,0,40,20.25ZM38.6,10.4s0,0,0,0,0,.06,0,.06a.05.05,0,0,0,0-.07S38.63,10.4,38.6,10.4Zm.88,3.87.05.08.06.09,0-.06,0-.05a.82.82,0,0,0,0-.14.48.48,0,0,0-.08-.12l0,0,0,0a0,0,0,0,0,0,0v.08Zm-.11-1.64v-.1l-.09,0Zm.36,2.06s-.07,0-.06.1,0,.08.09.07.05,0,.05-.09S39.77,14.69,39.73,14.69Zm.26.55c0,.11.08.16.2.14l-.06-.44a.14.14,0,0,0-.14.12A.54.54,0,0,0,40,15.24Zm.22.46c-.05,0-.07.05-.06.11a.08.08,0,0,0,.09.08s.07-.05.06-.11A.08.08,0,0,0,40.21,15.7Zm-.49-3.95s0,.07,0,.16a2.13,2.13,0,0,0,.09.27,1.17,1.17,0,0,0,.11.25c0,.08.09.11.13.1h0a.51.51,0,0,1,0-.32.19.19,0,0,1,.11-.09l.13,0s.05-.05,0-.13a.86.86,0,0,0,0-.17,2.58,2.58,0,0,0-.08-.26.86.86,0,0,0-.13-.23.18.18,0,0,0-.17-.08.87.87,0,0,0,0,.24,1.47,1.47,0,0,0,0,.27l0,0a.09.09,0,0,1-.06,0l-.2-.15Zm1.12,6.54s-.05,0-.05.07,0,.06,0,.05S40.88,18.3,40.84,18.29Zm-1.52-10a.37.37,0,0,0,.17.33.5.5,0,0,0,.37.08l.1,0a.18.18,0,0,0,.09-.07l.35-.13,0-.11a.3.3,0,0,1-.15,0,.44.44,0,0,1-.1-.08L40.12,8A.38.38,0,0,0,40,7.88s0,0-.12,0l-.15,0a.67.67,0,0,1-.09-.19.33.33,0,0,1,0-.17l-.11,0a2.23,2.23,0,0,1,0,.23.89.89,0,0,0,.07.28.55.55,0,0,0,.14.22c.06.06.14.06.25,0a.26.26,0,0,1,0,.1.25.25,0,0,1-.07.09.2.2,0,0,1-.17,0,.51.51,0,0,1-.13-.09l-.14-.1A.19.19,0,0,0,39.32,8.28Zm1.35,8.92a.31.31,0,0,0,.11.2.26.26,0,0,0,.21.06l.13-.05a.12.12,0,0,0,0-.13.08.08,0,0,0-.07-.08.33.33,0,0,0-.15,0h-.16Zm-.43-6.29a.34.34,0,0,0,.06.15s.08,0,.16,0a2.38,2.38,0,0,1,.39,0l.38-.05a.59.59,0,0,0,.27-.15.3.3,0,0,0,.07-.29l.18-.07a.48.48,0,0,1,.16,0,.4.4,0,0,1,.22.17q.06.12.27.09L42.3,10l.07-.09.09-.1V9.7s0,0,0,0a.09.09,0,0,1-.06.06l.19-.27.52,0a0,0,0,0,0,0,0,.08.08,0,0,1,0,0,.54.54,0,0,1-.08-.14c-.05-.08-.08-.12-.1-.11s0-.15,0-.28l.06-.41L43,8a1.62,1.62,0,0,1,0-.23.92.92,0,0,0,0-.17c0-.09,0-.14,0-.15l0-.17a.34.34,0,0,0-.06-.15l-.12-.09A.63.63,0,0,1,42.7,7a.26.26,0,0,1-.07-.16c-.05,0-.1.06-.14.16a1.84,1.84,0,0,1-.18.33,1,1,0,0,1-.3.32.72.72,0,0,1-.51.13,1.42,1.42,0,0,1-.25.72l-.47.71a4.16,4.16,0,0,0-.42.78A1.8,1.8,0,0,0,40.24,10.91Zm.2,1.2s0,.06.06.1a.34.34,0,0,0,.11.07l0-.18Zm.1-.39.12,0s0-.07,0-.12a.17.17,0,0,0-.12-.1Zm.11-.45a.08.08,0,0,0,.07.07h.12l.12,0,.07,0,.24,0s0-.05-.06-.06h-.12l-.11,0h-.07l-.13,0ZM40.86,8,41,8l0-.1-.12,0Zm.33.12a.1.1,0,0,0-.09.11c0,.06,0,.09.1.08s0,0,0-.1S41.22,8.15,41.19,8.15Zm.74,4L42,12h-.06Zm-.21-4.85s0,0,0,.09,0,.11,0,.1a.19.19,0,0,0,0-.12S41.74,7.28,41.72,7.28ZM43,10.11a.69.69,0,0,1,0,.27s0,.07.17,0h.11a.52.52,0,0,0-.05-.28S43.08,10.1,43,10.11Zm.14-2.56s0,0,0,.12.11.11.16.1,0,0,0-.12S43.15,7.54,43.11,7.55Zm.09.07s0,0,0,.12.12.12.16.11,0,0,0-.13S43.25,7.61,43.2,7.62Zm.14-1.74a.12.12,0,0,0-.06.12.74.74,0,0,0,0,.15l.22,0s0-.09,0-.15A.14.14,0,0,0,43.34,5.88Zm.5,2.72a.25.25,0,0,0,.2-.09L44,8.44s0,0-.06,0h-.09Zm0-1.4h.07l-.08-.08Zm0-.91s-.06,0-.06.09,0,.07.07.06.07,0,.07-.09S43.82,6.28,43.77,6.29ZM44,8h.08l0-.16H44Z"/></g></g></svg>