<svg xmlns="http://www.w3.org/2000/svg" viewBox="0 0 126.5 44.96"><defs><style>.cls-1{fill:#05e8bb;}</style></defs><g id="레이어_2" data-name="레이어 2"><g id="레이어_1-2" data-name="레이어 1"><polygon points="115.58 43.45 126.5 17.01 78.4 18.53 67.47 44.96 115.58 43.45"/><polygon points="75.35 38.72 81.33 24.25 69.15 24.64 63.17 39.1 75.35 38.72"/><polygon points="78.4 18.53 69.15 24.64 78.67 25.75 78.4 18.53"/><polygon points="63.17 39.1 67.47 44.96 74.08 39.82 72.52 36.7 63.17 39.1"/><path class="cls-1" d="M89.4,25a60,60,0,0,1-8.87,3.6,13.81,13.81,0,0,1-3.33.56A5,5,0,0,1,75.63,29a2.11,2.11,0,0,1-.86-.47,2.14,2.14,0,0,1,0-2.86,1.24,1.24,0,0,1,.49-.39.85.85,0,0,1,.8.06s.23.12-.07.49-1.28,2.31.39,2.67a4.22,4.22,0,0,0,1,.07c2.38,0,6.15-1.33,11.84-4.06.14-.07,2.6-1.32,4.86-2.26a6.34,6.34,0,0,1,2.18-.56,1.51,1.51,0,0,1,1.36.57c.07.08.41.55,0,1.87A13.12,13.12,0,0,1,96.25,27a23.9,23.9,0,0,1-1.43,2.1,15.74,15.74,0,0,0,4.67-1.78,10.15,10.15,0,0,0,1.41-1c1.57-1.45,1.16-2.85.92-3.12s.08-.47.08-.47a1.49,1.49,0,0,1,.88-.48.6.6,0,0,1,.43.19c.67,1-.28,2.36-.7,2.88a9.74,9.74,0,0,1-.86,1,11.64,11.64,0,0,1-2,1.51,16.38,16.38,0,0,1-4.41,1.76,1.69,1.69,0,0,1,.24.37,3.55,3.55,0,0,1,.33,1.65,7.69,7.69,0,0,1-.56,2.66c-1.07,2.9-.73,4.3,1.19,4.82a3.45,3.45,0,0,0,3-1.31s.51-.7.91-.58c.15,0,.2.14.19.25a.52.52,0,0,1-.15.36,4.77,4.77,0,0,1-2.88,1.91,5.8,5.8,0,0,1-.65.07,2.42,2.42,0,0,1-.72-.08,2.68,2.68,0,0,1-2-1.44c-.62-1.31-.12-3.42.21-5.25a2.5,2.5,0,0,0-.67-2.51c-.29.39-.61.77-.94,1.17-.91,1.12-1.9,2.29-2.89,3.37A28.24,28.24,0,0,1,87,37.82,15.48,15.48,0,0,1,85.37,39c-2.88,1.94-4.62,1.51-5.28,1.21a1.5,1.5,0,0,1-.71-.65,2.42,2.42,0,0,1,0-2,10.31,10.31,0,0,1,4.17-4.72,21.7,21.7,0,0,1,4.17-2.11,27.37,27.37,0,0,1,5-1.34c.42-.53.81-1.05,1.18-1.54,3.73-5,2.76-5.56,2.51-5.61a4.39,4.39,0,0,0-2.18.47c-1,.42-2,.89-2.88,1.3ZM80.55,39.58c2.3.39,7.61-4.57,11.59-9.43a29.21,29.21,0,0,0-4.41,1.23,20.07,20.07,0,0,0-4,2,13.1,13.1,0,0,0-2.55,2.2,6.43,6.43,0,0,0-1.22,2,1.93,1.93,0,0,0,0,1.57A.83.83,0,0,0,80.55,39.58Z"/><path class="cls-1" d="M106,31.13c-.56.57-1.87,1.89-3.17,3a11.2,11.2,0,0,1-2.22,1.5,2.78,2.78,0,0,1-2.2.29,1.3,1.3,0,0,1-.59-1.86,7.77,7.77,0,0,1,1.46-2.15c1.63-1.72,4-3.17,5.2-3a1.16,1.16,0,0,1,.34.09.45.45,0,0,1,.24.34,1.32,1.32,0,0,1-.19.83,6.38,6.38,0,0,1-1.37,1.57,3,3,0,0,1-2.31.85s-.4-.08-.45-.37a.57.57,0,0,1-.11.11c-2.49,2.51-1.68,3.16-1.68,3.16.44.28,1.16.06,1.84-.32a11.68,11.68,0,0,0,1.84-1.31,40.19,40.19,0,0,0,3-2.8.48.48,0,0,1,.34-.17C106.07,30.82,106.1,31,106,31.13Zm-4.55.39c-.38.38-.12.54-.12.54a1.1,1.1,0,0,0,.76,0,4,4,0,0,0,1-.52,6,6,0,0,0,1.31-1.38c.43-.64.19-.76.19-.76S104,29.2,101.42,31.52Z"/><path class="cls-1" d="M112.34,31c-.56.57-1.87,1.89-3.17,3a11.2,11.2,0,0,1-2.22,1.5,2.82,2.82,0,0,1-2.2.29,1.3,1.3,0,0,1-.59-1.86,7.7,7.7,0,0,1,1.47-2.15c1.62-1.72,4-3.17,5.19-3.05a1.09,1.09,0,0,1,.34.09.48.48,0,0,1,.25.33,1.43,1.43,0,0,1-.2.84,6.38,6.38,0,0,1-1.37,1.57,3,3,0,0,1-2.31.85s-.4-.08-.45-.37a.57.57,0,0,1-.11.11c-2.49,2.51-1.68,3.16-1.68,3.16.44.28,1.16,0,1.84-.32A11.68,11.68,0,0,0,109,33.69a38.63,38.63,0,0,0,3-2.81.47.47,0,0,1,.34-.16C112.44,30.71,112.47,30.87,112.34,31Zm-4.55.39c-.38.38-.12.54-.12.54a1.16,1.16,0,0,0,.76,0,4.25,4.25,0,0,0,.95-.53A5.56,5.56,0,0,0,110.69,30c.43-.64.19-.76.19-.76S110.36,29.09,107.79,31.41Z"/><path class="cls-1" d="M120,30.88c-.45.46-1.35,1.38-2.36,2.28a5.74,5.74,0,0,1-3.31,1.41,4.29,4.29,0,0,1-2.74,1,.39.39,0,0,1-.33-.58s.43-1.22,2.38-1a12.88,12.88,0,0,0,1.85-1.8c2.39-2.79,1.92-3.15,1.92-3.15-.8-.11-2.23,1.12-3.19,2-2.31,2.47-3.59,3.9-4.89,5.47A9.92,9.92,0,0,0,107.19,40c0,.17-.27.3-.4.21-1-.78,1.36-3.86,1.36-3.86a60.38,60.38,0,0,1,6.69-7.52,1.1,1.1,0,0,1,.69-.3h.5c.26,0,.3.25.09.47a.73.73,0,0,0-.09.09,2.83,2.83,0,0,1,1.58-.57c1.18.09.61,2.13-1.08,4A18.49,18.49,0,0,1,115,34a4.89,4.89,0,0,0,2.3-1.09c.64-.57,1.38-1.28,2.26-2.18a.48.48,0,0,1,.34-.17C120.09,30.58,120.12,30.74,120,30.88Zm-7.17,3.62c-.37,0-1,.19-1.08.46S112.33,34.86,112.82,34.5Z"/><path d="M.17,0a44.81,44.81,0,0,0,5,5.91,28.2,28.2,0,0,0,6,4.64,13.27,13.27,0,0,0,7,1.83,10.92,10.92,0,0,0,3.52-.71A17.51,17.51,0,0,0,23.28,11c.52-.33,1.08-.58,1.58-1a6.46,6.46,0,0,0,2.46-2.4,3.67,3.67,0,0,0,.28-.76A4.23,4.23,0,0,0,27.68,6a2.56,2.56,0,0,0-.56-1.43A3.37,3.37,0,0,0,24,3.72a8.28,8.28,0,0,0-3.4,1.47,13.91,13.91,0,0,0-5,5.63,6,6,0,0,0-.34,3.59,6.09,6.09,0,0,0,1.88,3,8,8,0,0,0,3.14,1.7l.87.18.88.06H24c2.57,0,5.15-.11,7.74-.19S37,19,39.61,19.09a33.05,33.05,0,0,1,7.92,1.22,26.84,26.84,0,0,1,7.28,3.38A39.83,39.83,0,0,1,58.05,26L61,28.62a13.49,13.49,0,0,0,3.1,2A23.74,23.74,0,0,0,67.62,32a45.34,45.34,0,0,0,7.53,1.67v.2a34.19,34.19,0,0,1-3.91-.24A30.24,30.24,0,0,1,67.35,33a24.88,24.88,0,0,1-3.8-1.18,14,14,0,0,1-3.56-2l-3-2.41c-1.05-.71-2.05-1.5-3.16-2.1a35,35,0,0,0-3.32-1.75,28.39,28.39,0,0,0-3.53-1.23C42.13,21,37,21,31.79,21.06c-2.59,0-5.21,0-7.82-.1l-2-.1L21,20.71l-1-.29a9.23,9.23,0,0,1-3.5-2.21,7.16,7.16,0,0,1-2-3.63,7.25,7.25,0,0,1,.55-4,17.12,17.12,0,0,1,6.91-7,9.5,9.5,0,0,1,1.92-.68c.17,0,.34-.09.51-.11l.53,0A3.88,3.88,0,0,1,26,2.84,4,4,0,0,1,27,3.18a3.83,3.83,0,0,1,.93.68,3.7,3.7,0,0,1,1,2.06,5.53,5.53,0,0,1,0,1.15,4.8,4.8,0,0,1-.31,1.08,7.73,7.73,0,0,1-2.78,3.2c-.53.43-1.14.75-1.71,1.13a13.9,13.9,0,0,1-1.88.86,11.58,11.58,0,0,1-4.08.81,14.15,14.15,0,0,1-7.82-2.26,25.52,25.52,0,0,1-6-5.26A34.1,34.1,0,0,1,0,.1Z"/></g></g></svg>