<svg id="레이어_1" data-name="레이어 1" xmlns="http://www.w3.org/2000/svg" xmlns:xlink="http://www.w3.org/1999/xlink" viewBox="0 0 1920.43 1075.37"><defs><style>.cls-1,.cls-14,.cls-15,.cls-17{fill:none;}.cls-2,.cls-7,.cls-8{fill:#e8ba38;}.cls-19,.cls-3{fill:#558ac4;}.cls-4{clip-path:url(#clip-path);}.cls-11,.cls-5{fill:#e981ef;}.cls-6{font-size:36.9px;fill:#d582d8;letter-spacing:-0.06em;}.cls-11,.cls-12,.cls-19,.cls-6,.cls-7,.cls-8,.cls-9{font-family:CourierStd-Bold, Courier Std;font-weight:700;}.cls-11,.cls-12,.cls-7,.cls-8,.cls-9{font-size:36.9px;}.cls-11,.cls-12,.cls-7{letter-spacing:-0.06em;}.cls-8,.cls-9{letter-spacing:-0.06em;}.cls-10,.cls-12,.cls-9{fill:#51e5be;}.cls-13{fill:#eded5e;opacity:0.2;}.cls-14,.cls-16{stroke:#000;}.cls-14,.cls-15,.cls-16,.cls-17{stroke-miterlimit:10;stroke-width:17px;}.cls-15{stroke:#51e5be;}.cls-17{stroke:#e981ef;}.cls-18{fill:#69a0d1;}.cls-19{font-size:39.78px;letter-spacing:-0.03em;}</style><clipPath id="clip-path" transform="translate(-248 -1112.63)"><rect class="cls-1" x="248.43" y="1246.01" width="1920" height="941.87"/></clipPath></defs><polygon class="cls-2" points="691.29 40.14 711.28 80.64 755.98 87.14 723.64 118.67 731.27 163.18 691.29 142.17 651.32 163.18 658.95 118.67 626.61 87.14 671.3 80.64 691.29 40.14"/><rect class="cls-3" x="0.45" width="1919.97" height="1075.26"/><g class="cls-4"><path d="M1666.78,2104.86,1494.17,2188H2168V1745.28l-320-83.19s-18.26-1.52-20.93,12.55l-103.92,326s-51.54-69.5-134.71-67.16c0,0-60.13,3.9-63.25-22.65l-2-18.39s6.67-1.67,5.91-11.67a24.37,24.37,0,0,0-7.12-15.6L1507.7,1377l13.56-2.33a20.43,20.43,0,0,0,5-21.32l6.87-1.3s2.23-.16,2.23-3.51v-7h5.11a3.54,3.54,0,0,0,2.39-3.19v-4.8l341-58.31s63.21-15.22,69.66-23.73,6.25-22.28-9.74-23.92l-486,84s-10,1.35-10,9l2.8,14.15s.66,5.92,6.7,5.58v2.24s-9.19,3.35-7.93,19.81c1.37,12,7.31,15.55,7.31,15.55l-12,509.12s-9,.92-8.67,15.9,9.22,19.43,9.22,19.43,4.2,32.27-12.68,34.24-65.54,32.07-48.38,72.3,143.91,125.51,313.4,57.72c0,0,.2,7,5.48,8.75C1703.2,2095.31,1687.88,2094.81,1666.78,2104.86Z" transform="translate(-248 -1112.63)"/><path d="M765.58,2109.93s-4.35.62-3.73,7.13l-9,9v2.57l1.7,1.19v6.62l-1.73-1v5l1.19.64v6.55l-1.51-.8v3.75L836.89,2188h293.42l207.94-117.84a26.18,26.18,0,0,0,13.28-22.79V2004.5a18.23,18.23,0,0,0-4.92-12.45l-25.91-27.66a18.2,18.2,0,0,0-8.49-5.12l-170.83-46.75s-10.86-4.75-26.47,2l-245,116.07L835.94,1628.8s-2.31-9.9-9.35-9.9l-32.92,3-1-18.77h-8.88l-278.29,19.83-18.6,3.72-213.29-.87v2l-7.27-.22-17.91,9.09-.42.11v523.28l517.58-62.25Z" transform="translate(-248 -1112.63)"/><path d="M985.54,1645.09s-55.79-115-143.31-107.16-110.29,71.24-110.29,71.24l-24.6,3.73s26-89.65,119.34-90.6,140.15,70.48,154.78,95.84Z" transform="translate(-248 -1112.63)"/><path d="M991.54,1662s-6.08-17-23-16.54l-51.9-.16-1-6.29s-2.25-5.18-15.48-3.18-12.71,6.89-12.71,6.89l-.25,3.29-26.94.38a.81.81,0,0,0-.87-.8l-.77-5.1s-1.12-3.08-12.82-1.77-12.26,3.81-12.26,3.81l-2.23.24L859.66,1981l75.29,2.52,12.68-19.92s-7.64-2.53-9.06-12.67L959.12,1878s1.35-6.91,8.16-5.23l45.65,9.07-16.19-218.6Z" transform="translate(-248 -1112.63)"/><path class="cls-5" d="M887.26,1646l.25-3.29s-.52-4.88,12.71-6.89S915.7,1639,915.7,1639l1,6.29a4.8,4.8,0,0,1,1.58,2.63l3.34,18.32-35.5.9,0-19A2.11,2.11,0,0,1,887.26,1646Z" transform="translate(-248 -1112.63)"/><path class="cls-5" d="M864.85,1667.09l-3.33-18.32a4.79,4.79,0,0,0-1.59-2.63l-.95-6.29s-2.25-5.18-15.48-3.18-12.08,6.65-12.08,6.65l2.11,24.55Z" transform="translate(-248 -1112.63)"/><path class="cls-5" d="M968.4,1684.78s10.93,0,12.55,10.64L993,1877.92l-25.73-5.11s-6.19-1.74-8.16,5.23l-20.55,72.85s1.16,8.56,9.06,12.67l-9.41,10.78-79-2.33-24.15-284.78Z" transform="translate(-248 -1112.63)"/><circle cx="746.24" cy="518.58" r="32.21"/><text class="cls-6" transform="matrix(1, -0.06, 0.06, 1, 726.69, 532.52)">83</text><circle class="cls-2" cx="306.99" cy="375.07" r="105.68"/><polygon points="209.33 530.38 209.33 451.07 226.53 440.34 315.59 468.59 392.49 435.34 402.51 446.43 399.65 467.53 335.62 534.5 294.13 534.5 228.32 477.9 228.35 531 209.33 530.38"/><circle cx="187.43" cy="370.59" r="32.21"/><text class="cls-7" transform="translate(167.09 383.31)">27</text><path class="cls-2" d="M1506,1333.93s35.27-8.17,36.87-.44l341-58.31s62-13.78,69.66-23.73c0,0-2.38-6-35.81,2.18Z" transform="translate(-248 -1112.63)"/><circle cx="1198.28" cy="321.47" r="32.21"/><text class="cls-8" transform="translate(1179.71 333.78)">62</text><circle cx="1517.72" cy="753.14" r="32.21"/><text class="cls-9" transform="translate(1497.15 765.45)">91</text><polygon points="745.01 765.3 764.93 769.26 770.71 865.72 726.68 865.72 714.03 831.84 745.01 765.3"/><polygon class="cls-5" points="743.22 743.8 753.03 861.29 674.15 858.35 674.15 740.53 743.22 743.8"/><polygon class="cls-10" points="659.2 925.04 839.44 994.22 881.62 969.03 878.88 966.91 897.7 955.99 900.73 957.81 919.85 945.37 901.04 938.39 896.49 939.6 883.44 934.44 887.08 932.62 762.97 891.96 759.94 894.09 749.62 890.75 748.71 887.71 741.73 884.68 659.2 925.04"/><polygon class="cls-10" points="754.31 1038.51 777.33 1057.75 938.56 967.29 907.17 949.19 936.43 931.63 956.12 939.45 968.89 953.96 770.94 1066.26 746.97 1043.77 754.31 1038.51"/><path d="M572.22,1854.8s-104.58-.78-114.81,33.82l-1.78,4.06s-25.61-10-49.45,27.75c0,0-49.46-25.26-70.46,21.71s45.19,98.21,103.9,105.68l-1.78,40.92s-1.09,43.53,64.58,59.39,118.56,12.78,165.71-15c32.62-22,37-41.43,36.14-56l-12.78-186.43s-.88-23.36-41-29.09S572.22,1854.8,572.22,1854.8Z" transform="translate(-248 -1112.63)"/><path class="cls-5" d="M442,2025l-2.42,22.86c-58.71-7.47-124.89-58.71-103.9-105.68s70.46-21.71,70.46-21.71c23.84-37.71,49.45-27.75,49.45-27.75l-2,20.22" transform="translate(-248 -1112.63)"/><path d="M408.56,1943.89s12.46,8.6,14.24-7.41,9.19-24.91,25.5-24.62c9.49,0,9.49,6.83,8.9,11l-11.57,102.9s-72.51-14.15-87.48-52.19,9.79-42.71,19-41.52S408.56,1943.89,408.56,1943.89Z" transform="translate(-248 -1112.63)"/><ellipse class="cls-5" cx="329.94" cy="772.25" rx="102.06" ry="18.73"/><circle cx="148.95" cy="949.9" r="32.21"/><circle cx="711.55" cy="884.68" r="32.21"/><text class="cls-11" transform="translate(139.38 962.21)">5</text><text class="cls-12" transform="translate(690.98 896.98)">34</text><path class="cls-10" d="M790.5,2114.34,957.9,2188h24.63l1.68-23.89,28.81-20.64-135-53-7.38,6-24.8-10.34v-8.88l-25.43-10.45a8.09,8.09,0,0,0-5.54.89l-24.4,12.46c-2.37.12-1.91,3.14-1.91,3.14Z" transform="translate(-248 -1112.63)"/><polygon class="cls-13" points="1920 235.71 1669.79 141 1294.9 220.86 1920 1044.42 1920 235.71"/><polygon class="cls-10" points="1920 1075.37 1920.43 1045.02 1586.49 605.86 1470.08 965.91 1675.49 1075.37 1920 1075.37"/></g><polygon points="712.72 676.17 697.4 668.8 719.63 622.63 735.49 619.55 736.62 636.76 731.17 637.85 712.72 676.17"/><polygon class="cls-5" points="736.62 636.76 735.49 619.55 792.92 608.32 804.23 578.44 820.13 584.46 805.48 623.17 736.62 636.76"/><polygon points="698.89 716.44 693.32 700.38 739.76 684.27 740.92 701.86 698.89 716.44"/><polygon class="cls-5" points="740.92 701.86 739.76 684.27 787.65 667.66 793.22 683.72 740.92 701.86"/><line class="cls-14" x1="693.06" y1="604.53" x2="680.35" y2="649.4"/><polygon class="cls-10" points="921.55 850.38 906.51 842.46 924.44 808.43 941.23 813.03 921.55 850.38"/><polygon points="941.23 813.03 924.44 808.43 940.94 777.1 975.19 764.83 987.93 740.34 1003.01 748.18 987.19 778.59 952.9 790.88 941.23 813.03"/><polygon class="cls-10" points="959.01 842.62 950.49 827.91 964.97 819.52 988 825.83 959.01 842.62"/><polygon points="988 825.83 964.97 819.52 998.95 799.84 1035.36 799.84 1035.36 816.84 1003.52 816.84 988 825.83"/><line class="cls-15" x1="930.31" y1="743.84" x2="913.91" y2="778.68"/><path class="cls-14" d="M1331.74,1859.51s20.94,7.42,20.57,33.72" transform="translate(-248 -1112.63)"/><ellipse class="cls-16" cx="1045.01" cy="1873.37" rx="6.26" ry="13.98" transform="translate(-1282.1 1288.84) rotate(-75.1)"/><path class="cls-14" d="M1058.53,1877l24.6-67.54s20.94,7.42,20.57,33.72" transform="translate(-248 -1112.63)"/><ellipse class="cls-16" cx="1304.54" cy="1894.2" rx="6.26" ry="13.98" transform="translate(-1109.44 1555.1) rotate(-75.1)"/><path class="cls-14" d="M1318.05,1897.79l24.61-67.54s20.93,7.42,20.56,33.73" transform="translate(-248 -1112.63)"/><ellipse class="cls-16" cx="1158.45" cy="1796.12" rx="13.98" ry="6.26" transform="translate(-749.7 -662.59) rotate(-18.14)"/><line class="cls-14" x1="923.74" y1="679.14" x2="907.54" y2="609.11"/><path class="cls-17" d="M536.16,1769.9s16.6,12.67,6.49,36.19c0,0-11.07,25.28,6.8,38" transform="translate(-248 -1112.63)"/><path class="cls-17" d="M570.17,1769.9s16.6,12.67,6.48,36.19c0,0-11.06,25.28,6.8,38" transform="translate(-248 -1112.63)"/><path class="cls-17" d="M604.18,1769.9s16.6,12.67,6.48,36.19c0,0-11.06,25.28,6.8,38" transform="translate(-248 -1112.63)"/><path class="cls-5" d="M395.65,1349.72a140.36,140.36,0,0,0-13.73-23.24l-19.48-27h-17v29.66h16.38v20.58H307.55v-20.58H325V1243.7H308.43v-20.59h60.21c9.08,0,18.82.67,26.56,5.09,11.74,6.64,17.49,19,17.49,32.1,0,15.71-9.3,29-20.81,32.54l-8.63,2.65,25.46,33.65h16.6v20.58Zm-22.8-106H345.4v35.19h19.92c9.74,0,27.23-.88,27.23-18.37C392.55,1244.36,378.38,1243.7,372.85,1243.7Z" transform="translate(-248 -1112.63)"/><path class="cls-10" d="M510.26,1422.82v-10.41c-3.32,2-10,6.2-10,6.2-6.2,3.76-17.27,6.86-27,6.86-24.79,0-38.07-17.48-38.07-31.87,0-4.21,2-34.53,51.13-34.53a212.23,212.23,0,0,1,23.91,1.55V1358c0-13.28-16.38-13.72-21.69-13.72-13.06,0-25.9,3.76-38.08,8.63l-8-17.71c14.17-6,30.77-11.51,46.93-11.51,4.43,0,29.22,0,37.41,17.71,3.32,7.08,3.32,15.94,3.32,24.13v36.74h17v20.59Zm0-41.62c-6.42-.44-14.61-1.77-27-1.77-11.29,0-27.67,3.54-27.67,14.39,0,7.08,8.64,11.07,17.49,11.07,14.39,0,27-7.53,37.19-17.05Z" transform="translate(-248 -1112.63)"/><path class="cls-2" d="M587.91,1352.38c-15.5,0-38.07-4.43-38.07-34.75v-43.39h-14v-20.58h14v-29.44h20.58v29.44H623.1v20.58H570.42v38.52c0,9.52,1.11,19.26,17.71,19.26,14.39,0,36.52-9.74,44.49-13.28l3.54,20.36C621.77,1345.3,604.73,1352.38,587.91,1352.38Z" transform="translate(-248 -1112.63)"/><path class="cls-10" d="M661.17,1398v-20.59h37v-54.89h-31V1301.9h51.58v75.48H755V1398Zm34.09-109.13v-33h23.47v33Z" transform="translate(-248 -1112.63)"/><path class="cls-2" d="M841.13,1447.67v-20.59H858v-42.5c0-8.63-1.32-15.49-16.15-15.49-6.42,0-20.59,2.66-31.44,12.17v45.82h17.27v20.59H773v-20.59h17v-54.89H772.51V1351.6h37.85v7.09a63.1,63.1,0,0,1,33.43-10c11.51,0,22.13,3.1,29,12.4a36.67,36.67,0,0,1,5.54,18.82v47.14h16.6v20.59Z" transform="translate(-248 -1112.63)"/><path class="cls-10" d="M1004.49,1303.6v70.83c0,23.91-4.65,45.6-45.6,45.6-16.38,0-32.1-3.54-50.47-7.75l4.87-20.8c8.41,2.43,28.77,7.75,44.93,7.75,25.46,0,26.12-10.41,26.12-23.47v-8.63c-8.41,6.64-19.7,9.74-30.76,9.74-31.22,0-52.91-20.81-52.91-48,0-27,21.92-48.48,53.57-48.48,11.07,0,21.91,2.88,30.1,9.52V1283h37.19v20.58Zm-51.14-2.66c-17.26,0-31.87,11.29-31.87,27.45,0,16.6,15.72,27.89,31.65,27.89,18.82,0,31.21-10.4,31.21-27.22C984.34,1311.57,971.28,1300.94,953.35,1300.94Z" transform="translate(-248 -1112.63)"/><path class="cls-5" d="M1091.48,1381.62a89.26,89.26,0,0,1-32.1-6.42v6.42H1039V1340h20.36v15.5a89.77,89.77,0,0,0,31,5.53c11.73,0,25.68-3.76,25.68-11.29,0-2.43-.67-4.64-3.1-6-6.86-3.77-16.6-2.66-24.57-3.32-15.5-1.33-46.49-3.55-46.49-30.33,0-21.91,22.14-30.32,41.4-30.32a80.16,80.16,0,0,1,27.89,5.09v-5.09h20.36v38.51h-20.36v-12.39c-7.31-3.55-17-5.54-26.12-5.54-4.87,0-23.69,1.11-23.69,10.18,0,8.19,14.83,9.52,20.15,10l27.66,2.21c14.17,1.11,26.57,10.84,26.57,27C1135.75,1369.22,1116.05,1381.62,1091.48,1381.62Z" transform="translate(-248 -1112.63)"/><circle class="cls-2" cx="841.38" cy="130.39" r="10.85"/><rect class="cls-18" x="912.57" y="263.82" width="56.41" height="37.99"/><rect class="cls-18" x="934.04" y="299.22" width="159.42" height="37.99"/><text class="cls-19" transform="translate(940.44 326.03)">my</text><text class="cls-19" transform="translate(996.45 326.03)">room</text><text class="cls-19" transform="translate(916.93 295.69)">in</text></svg>