<svg xmlns="http://www.w3.org/2000/svg" viewBox="0 0 340.53 96.46"><defs><style>.cls-1{fill:#e981ef;}.cls-2{fill:#51e5be;}.cls-3{fill:#e8ba38;}.cls-4{fill:#69a0d1;}.cls-5{font-size:14.15px;fill:#558ac4;font-family:CourierStd-Bold, Courier Std;font-weight:700;letter-spacing:-0.03em;}</style></defs><g id="레이어_2" data-name="레이어 2"><g id="레이어_1-2" data-name="레이어 1"><path class="cls-1" d="M31.35,45.05a49.16,49.16,0,0,0-4.89-8.27l-6.93-9.61H13.47V37.73H19.3v7.32H0V37.73H6.22V7.33H.31V0H21.74C25,0,28.43.24,31.19,1.81a12.73,12.73,0,0,1,6.22,11.42c0,5.59-3.3,10.32-7.4,11.58l-3.07,1,9.06,12h5.9v7.32ZM23.24,7.33H13.47V19.85h7.09c3.46,0,9.69-.32,9.69-6.54C30.25,7.56,25.2,7.33,23.24,7.33Z"/><path class="cls-2" d="M72.13,71.06v-3.7c-1.18.71-3.54,2.21-3.54,2.21A20.73,20.73,0,0,1,59,72c-8.82,0-13.55-6.22-13.55-11.34,0-1.5.71-12.29,18.19-12.29a74.76,74.76,0,0,1,8.51.55V48c0-4.72-5.83-4.88-7.72-4.88a37,37,0,0,0-13.55,3.07L48,39.87c5-2.13,10.95-4.09,16.7-4.09,1.57,0,10.39,0,13.31,6.3,1.18,2.52,1.18,5.67,1.18,8.58V63.74h6.07v7.32Zm0-14.81c-2.28-.15-5.2-.63-9.61-.63-4,0-9.84,1.26-9.84,5.12,0,2.52,3.07,3.94,6.22,3.94,5.12,0,9.61-2.68,13.23-6.06Z"/><path class="cls-3" d="M99.76,46c-5.51,0-13.55-1.58-13.55-12.37V18.19h-5V10.87h5V.39h7.33V10.87h18.75v7.32H93.54V31.9c0,3.39.39,6.85,6.3,6.85,5.12,0,13-3.46,15.83-4.72l1.26,7.24C111.81,43.48,105.75,46,99.76,46Z"/><path class="cls-2" d="M125.83,62.22V54.89H139V35.36H128V28h18.35V54.89h12.92v7.33ZM138,23.39V11.65h8.35V23.39Z"/><path class="cls-3" d="M189.87,79.91V72.58h6V57.46c0-3.07-.47-5.52-5.75-5.52a18.51,18.51,0,0,0-11.18,4.34v16.3h6.14v7.33H165.61V72.58h6.06V53.05h-6.22V45.72h13.47v2.52a22.51,22.51,0,0,1,11.89-3.54c4.1,0,7.88,1.1,10.32,4.41a13.05,13.05,0,0,1,2,6.69V72.58H209v7.33Z"/><path class="cls-2" d="M248,28.64V53.85c0,8.5-1.66,16.22-16.23,16.22-5.83,0-11.42-1.26-18-2.76l1.73-7.4c3,.87,10.24,2.76,16,2.76,9.06,0,9.3-3.7,9.3-8.35V51.25a17.82,17.82,0,0,1-11,3.46c-11.11,0-18.83-7.4-18.83-17.09s7.8-17.25,19.07-17.25a16.88,16.88,0,0,1,10.71,3.39V21.32h13.23v7.32Zm-18.2-.94c-6.14,0-11.34,4-11.34,9.76,0,5.91,5.59,9.93,11.26,9.93,6.7,0,11.11-3.7,11.11-9.69C240.83,31.48,236.18,27.7,229.8,27.7Z"/><path class="cls-1" d="M279,56.4a31.7,31.7,0,0,1-11.42-2.28V56.4h-7.25V41.59h7.25v5.52a31.91,31.91,0,0,0,11,2c4.17,0,9.13-1.34,9.13-4a2.19,2.19,0,0,0-1.1-2.13c-2.44-1.34-5.91-.94-8.74-1.18-5.52-.47-16.54-1.26-16.54-10.79,0-7.8,7.87-10.79,14.72-10.79A28.61,28.61,0,0,1,286,22V20.17h7.25V33.88H286V29.47a22.17,22.17,0,0,0-9.29-2c-1.74,0-8.43.39-8.43,3.62,0,2.91,5.27,3.39,7.16,3.54l9.85.79c5,.39,9.45,3.86,9.45,9.61C294.7,52,287.69,56.4,279,56.4Z"/><circle class="cls-3" cx="279.37" cy="6.88" r="4.02"/><rect class="cls-4" x="276.17" y="70.35" width="20.07" height="13.52"/><rect class="cls-4" x="283.81" y="82.95" width="56.73" height="13.52"/><text class="cls-5" transform="translate(286.09 92.49)">my</text><text class="cls-5" transform="translate(306.02 92.49)">room</text><text class="cls-5" transform="translate(277.72 81.69)">in</text></g></g></svg>