<svg xmlns="http://www.w3.org/2000/svg" viewBox="0 0 44 45.96"><defs><style>.cls-1{fill:#ffe7c0;}.cls-2{fill:#ff1515;}.cls-3{fill:#ce1515;}</style></defs><g id="레이어_2" data-name="레이어 2"><g id="레이어_1-2" data-name="레이어 1"><polygon class="cls-1" points="0.89 3.97 3.57 1.29 12.06 4.87 4.47 12.02 0.89 3.97"/><polygon class="cls-2" points="4.47 12.02 37.97 45.96 44 39.93 12.06 4.87 4.47 12.02"/><polygon class="cls-1" points="5.79 13.35 5.79 10.77 8.04 11.12 8.04 8.65 10.27 8.89 10.16 6.65 12.06 6.86 12.06 4.87 4.47 12.02 5.79 13.35"/><polygon class="cls-3" points="8.04 11.12 40.2 43.73 37.97 45.96 5.79 13.35 5.79 10.77 8.04 11.12"/><polygon class="cls-3" points="12.06 6.86 12.06 4.87 44 39.93 42.93 41 12.06 6.86"/><path class="cls-2" d="M.89,4,3.57,1.29,1.18.1a.82.82,0,0,0-.9.07A.71.71,0,0,0,0,.85,13.86,13.86,0,0,0,.89,4Z"/></g></g></svg>