<svg xmlns="http://www.w3.org/2000/svg" viewBox="0 0 1005.16 52.86"><g id="레이어_2" data-name="레이어 2"><g id="레이어_1-2" data-name="레이어 1"><path d="M0,14.88c11.6-1.8,23.23-3.35,34.88-4.73s23.31-2.65,35-3.77q35-3.36,70.26-4.77c23.46-.94,47-1.23,70.47-.35s47,2.77,70.26,6.81a274.18,274.18,0,0,1,34.49,8.16c2.83.87,5.63,1.86,8.43,2.86s5.56,2.13,8.24,3.22c5.42,2.16,10.88,4.21,16.38,6.1s11,3.66,16.65,5.09a89.31,89.31,0,0,0,16.88,2.9,24.06,24.06,0,0,0,8-.72A6.72,6.72,0,0,0,392.9,34a3.53,3.53,0,0,0,.92-2.72,9.44,9.44,0,0,0-3.57-6.18,8.22,8.22,0,0,0-1.51-1,6.43,6.43,0,0,0-1.68-.49,17.46,17.46,0,0,0-4-.28c-2.6.11-5.16,1.14-6,3.11a5.07,5.07,0,0,0-.13,3.35,11.57,11.57,0,0,0,1.69,3.51,28,28,0,0,0,5.84,6,58.15,58.15,0,0,0,7.16,4.76,50,50,0,0,0,33.25,6.59,49.75,49.75,0,0,0,8.41-2,50.34,50.34,0,0,0,7.92-3.48,40.57,40.57,0,0,0,13-11.06,24.92,24.92,0,0,0,3.88-7.5,17.67,17.67,0,0,0,.57-8.22,17.23,17.23,0,0,0-3.33-7.47,26.05,26.05,0,0,0-6.11-5.68l.12.08a17.84,17.84,0,0,0-8.87-1.87,16,16,0,0,0-4.37.85,13.9,13.9,0,0,0-3.89,2,15.19,15.19,0,0,0-5.16,6.91,16.87,16.87,0,0,0-.71,2.11,12.16,12.16,0,0,0-.42,2.06,13.78,13.78,0,0,0,.23,4.23,20.11,20.11,0,0,0,3.75,8,28.15,28.15,0,0,0,6.64,6.23,38.59,38.59,0,0,0,8.3,4.22A54.41,54.41,0,0,0,454,42.43a67.24,67.24,0,0,0,9.52,1c3.27.1,6.58.18,9.87.18,6.59,0,13.19-.07,19.79-.34,13.19-.52,26.38-1.5,39.55-2.79,26.34-2.6,52.59-6.38,78.8-10.45l78.66-12.48c26.26-4,52.6-7.79,79.12-10.15,13.26-1.15,26.57-2,39.91-2a244.52,244.52,0,0,1,40,2.73c1.65.28,3.3.54,4.95.89l2.46.49,2.46.56c1.64.36,3.26.79,4.88,1.24l4.8,1.33,4.78,1.33c1.6.43,3.2.81,4.8,1.22s3.21.83,4.82,1.2L888,17.45a291,291,0,0,0,39.17,6,209.56,209.56,0,0,0,39.6-.43,151.94,151.94,0,0,0,19.52-3.46q4.82-1.17,9.51-2.8a64.13,64.13,0,0,0,9.12-3.83l.25.43A64.16,64.16,0,0,1,996,17.43c-3.13,1.15-6.3,2.18-9.52,3a149.9,149.9,0,0,1-19.6,3.86A210.28,210.28,0,0,1,927,25.51a282.31,282.31,0,0,1-39.59-5.44l-4.89-1c-1.63-.35-3.24-.76-4.86-1.13s-3.25-.76-4.86-1.17L868,15.45l-4.81-1.26c-1.58-.42-3.17-.82-4.77-1.15L856,12.51l-2.42-.45c-1.61-.32-3.23-.56-4.86-.82A241.34,241.34,0,0,0,809.28,9c-13.21.21-26.41,1.09-39.59,2.33C743.33,13.87,717.1,17.8,690.91,22c-52.37,8.45-104.63,18.27-157.63,23.73-13.25,1.33-26.54,2.39-39.88,2.89-6.66.27-13.34.37-20,.34-3.35,0-6.67-.09-10-.2a72.45,72.45,0,0,1-10.26-1.09,48.82,48.82,0,0,1-19.37-7.75A33.18,33.18,0,0,1,426,32.46a25,25,0,0,1-4.45-10,18.52,18.52,0,0,1-.2-5.67A15.1,15.1,0,0,1,422,14a23.48,23.48,0,0,1,.95-2.57A19.33,19.33,0,0,1,430,3,18.2,18.2,0,0,1,440.47,0,20.84,20.84,0,0,1,450.69,3l.09.06,0,0a28.66,28.66,0,0,1,6.52,6.44A19.47,19.47,0,0,1,460.85,18a19.79,19.79,0,0,1-.9,9.14,28,28,0,0,1-4.27,8A41.9,41.9,0,0,1,442,46.55a51.1,51.1,0,0,1-8.2,3.51,52.53,52.53,0,0,1-8.65,2.13A53.92,53.92,0,0,1,407.34,52a55.9,55.9,0,0,1-16.82-5.95,60.77,60.77,0,0,1-7.59-4.78,30.81,30.81,0,0,1-6.56-6.4,14.61,14.61,0,0,1-2.2-4.33,8.06,8.06,0,0,1,.15-5.28,7.64,7.64,0,0,1,3.7-3.87,12.67,12.67,0,0,1,4.82-1.28,19.93,19.93,0,0,1,4.77.21,9.81,9.81,0,0,1,2.54.7,11.16,11.16,0,0,1,2.21,1.35,13.91,13.91,0,0,1,3.34,3.71A10.83,10.83,0,0,1,397.41,31a7.57,7.57,0,0,1-.3,2.85,7,7,0,0,1-1.44,2.55,10.34,10.34,0,0,1-4.5,2.84,27.23,27.23,0,0,1-9.37,1.1A87.88,87.88,0,0,1,364,37.62c-5.78-1.42-11.45-3.13-17-5s-11.12-4-16.6-6.13c-2.75-1.11-5.44-2.14-8.14-3.17l-4.1-1.44c-1.36-.47-2.75-.89-4.13-1.34a269.41,269.41,0,0,0-33.9-8.15c-11.47-2-23.06-3.55-34.68-4.69s-23.29-1.95-35-2.45-23.38-.75-35.09-.82-23.41.08-35.12.38c-23.41.61-46.81,2-70.18,3.72s-46.72,4-70,6.86Z"/></g></g></svg>