<svg xmlns="http://www.w3.org/2000/svg" viewBox="0 0 154.95 47.91"><defs><style>.cls-1{fill:#f97af4;}</style></defs><g id="레이어_2" data-name="레이어 2"><g id="레이어_1-2" data-name="레이어 1"><polygon points="147.23 0 154.95 26.82 109.5 29.53 101.78 2.71 147.23 0"/><polygon points="108.63 8.57 112.85 23.25 101.34 23.93 97.12 9.25 108.63 8.57"/><polygon points="109.5 29.53 101.34 23.93 110.48 21.91 109.5 29.53"/><polygon points="97.12 9.25 101.78 2.71 107.54 7.53 105.74 10.95 97.12 9.25"/><path class="cls-1" d="M115,10.16c.22.52.41,1,.5,1.24.38,1.12.76,2.41,1.06,3.39,0,0,1.89,6.87,4.68,9.73.23.25.08.44-.25.28a10.43,10.43,0,0,1-5.06-6.07,47,47,0,0,1-1.75-8.15,5.6,5.6,0,0,0-.35-1.22,5.34,5.34,0,0,0-.35-.63,7.09,7.09,0,0,1-1.31.54,5.57,5.57,0,0,1-2.08.2,6.09,6.09,0,0,1-2.34-.56A3,3,0,0,1,106.59,8c-.6-.83-.13-1.27.38-1.49a3.63,3.63,0,0,1,1.1-.29,6.87,6.87,0,0,1,4.64,1.25,5.34,5.34,0,0,1,.61.48c.5-.27,1-.58,1.46-.89a10.48,10.48,0,0,1,3.06-1.54,3.36,3.36,0,0,1,1.64,0,4.64,4.64,0,0,1,1.88,1,1.63,1.63,0,0,1,.4.44.49.49,0,0,1-.11.63s-.17.15-.6-.18-2.19-1.48-3.59-.89a14,14,0,0,0-2,1.15c-.5.32-1,.65-1.53.94A7.45,7.45,0,0,1,115,10.16Zm-2.09-2c-.14-.12-.29-.24-.46-.36a5.81,5.81,0,0,0-3.87-1,3.74,3.74,0,0,0-1,.26c-.36.15-.72.45-.37.92a1.31,1.31,0,0,0,.56.45,4.84,4.84,0,0,0,1.9.43,5.9,5.9,0,0,0,1.91-.17A7.26,7.26,0,0,0,112.9,8.13Z"/><path class="cls-1" d="M126.64,14.83c.26,1.12,1.1,5.07-.41,5,0,0-1.61.08-2.83-2.67-.25-.56-.72-2-.72-2-.47-1.77-.7-1.81-.7-1.81-.43-.21-.66.52-.32,2.34a20.79,20.79,0,0,0,1.47,4.15c.07.13,0,.22-.2.16-1.84-.71-3-3.85-3-3.85a43.71,43.71,0,0,1-2.4-8.79c0-.19.11-.31.33-.33l.47,0a.65.65,0,0,1,.6.44,86.23,86.23,0,0,0,2.24,8.76,12.21,12.21,0,0,0,.9,2.1,11.25,11.25,0,0,1-1-4.78c.06-.5.28-.83.94-.75,1.93.21,2.49,3.3,2.49,3.3.41,1.58.93,3.11,1.48,3.31,0,0,1.26.08.2-4.61a.13.13,0,0,1,.12-.19A.51.51,0,0,1,126.64,14.83Z"/><path class="cls-1" d="M132.27,14.33c.26,1.13,1.1,5.07-.41,5,0,0-1.56.08-2.74-2.67a10.08,10.08,0,0,1-.7-2.67c-.12-.82-1-1-1.49-1.08a22.69,22.69,0,0,1,.72,2.51c0,.13-.15.15-.34,0a.61.61,0,0,1-.24-.31c-.2-.88-.42-1.63-.62-2.25-2-.23-2.38-1.52-2.12-2s1-.44,1.54-.1a3.25,3.25,0,0,1,1,1.78c1.23.18,3,.81,3.2,2.27.29,1.79.87,3.81,1.52,4,0,0,1.26.08.19-4.61,0-.11,0-.17.12-.18A.49.49,0,0,1,132.27,14.33Zm-6-1.86c-.17-.41-.58-1.37-.73-1.39s-.63.24-.43.9C125.14,12,125.25,12.35,126.3,12.47Z"/><path class="cls-1" d="M138.61,13.77c.07.29.16.74.25,1.27,0,0,.24,1.27-.65,1.63.36,1.16.19,2.18-1,2.2a4.4,4.4,0,0,1-2.7-1.17,6.89,6.89,0,0,1-1.66-2.16,2.45,2.45,0,0,1-.28-1.39c-1.11-1.46-.75-2.61.82-2.46,2.18.19,4.21,3.78,4.21,3.78a4.21,4.21,0,0,1,.33.63c.49-.33.34-1.19.34-1.19-.07-.37-.15-.79-.25-1.24,0-.12,0-.18.14-.19A.5.5,0,0,1,138.61,13.77Zm-1.07,3a3.2,3.2,0,0,1-.89-.06,6.08,6.08,0,0,1-2.18-.92c1.14,2.57,2.6,2.52,2.6,2.52.35,0,.58-.34.55-.93A2.33,2.33,0,0,0,137.54,16.81Zm-4.34-3.33a1.68,1.68,0,0,1,.68-.08c.27,0,.6.33.49.48a1.83,1.83,0,0,0-.11,1.08,4.51,4.51,0,0,0,2.2,1.29,3.29,3.29,0,0,0,.91.05c-.11-.24-.21-.48-.33-.72-1.93-3.52-3.39-3.43-3.39-3.43C132.76,12.15,132.93,12.89,133.2,13.48Z"/><path class="cls-1" d="M145.23,12.73a.52.52,0,0,1-.34.28c1.05,2,1.79,5,.3,5.11,0,0-.81.07-1.9-1.26.21,1-.07,1.45-.68,1.44,0,0-1.3.16-2.82-2.59a15.83,15.83,0,0,1-1.53-4.13c0-.19.05-.32.25-.33l.44,0a.79.79,0,0,1,.65.44c.43,1.5,1.73,5.83,2.67,6.16,0,0,1-.08-.18-2.88a16.68,16.68,0,0,1-.92-2.44c-.16-.52.2-.73.72-.71a.74.74,0,0,1,.55.41c.57,1.87,1.59,5.14,2.41,5.44,0,0,.81-.19.41-2.11a9.77,9.77,0,0,0-.89-2.5,2.47,2.47,0,0,1-1.22-.76c-.79-.81-.76-1.34-.47-1.38.7-.14,1.49.95,1.88,1.55.17-.15.18-.4.41-.31A.5.5,0,0,1,145.23,12.73Zm-1.12-.19c-.35-.56-.85-1.23-1-1.2s.21.6.21.6A1.64,1.64,0,0,0,144.11,12.54Z"/><path d="M.12,14.36c11.54,8,23.32,15.78,36,21.72a74,74,0,0,0,9.7,3.77,33.4,33.4,0,0,0,5,1.13,16.07,16.07,0,0,0,5,0,10.06,10.06,0,0,0,2.35-.75,8.22,8.22,0,0,0,2-1.41,4.14,4.14,0,0,0,1.16-2,4.87,4.87,0,0,0-.13-2.42,8.36,8.36,0,0,0-7.57-5.76,5.68,5.68,0,0,0-4.3,2.1A7.63,7.63,0,0,0,48,32.76a4.52,4.52,0,0,0-.19,2.31,9,9,0,0,0,2.26,4.29,17.6,17.6,0,0,0,3.83,3.25,21.39,21.39,0,0,0,9.46,3.25A17.35,17.35,0,0,0,73,44a18.27,18.27,0,0,0,4-2.89,30.25,30.25,0,0,0,3.29-3.87q3.16-4.2,6.47-8.35a86.77,86.77,0,0,1,7-7.94A30,30,0,0,1,98,17.43a13.89,13.89,0,0,1,2.34-1.34,4.71,4.71,0,0,1,2.66-.42l0,.2a4.55,4.55,0,0,0-2.43.65A12.9,12.9,0,0,0,98.39,18a37.59,37.59,0,0,0-3.69,3.67c-2.31,2.61-4.42,5.4-6.52,8.21L82,38.42a29.75,29.75,0,0,1-3.48,4.21A20.36,20.36,0,0,1,74,45.84a19.1,19.1,0,0,1-10.8,2A22.36,22.36,0,0,1,53,44a19,19,0,0,1-4-3.7,10.35,10.35,0,0,1-2.31-5.08A5.79,5.79,0,0,1,47,32.36a8.26,8.26,0,0,1,1.61-2.3,6.87,6.87,0,0,1,5-2.18,8.49,8.49,0,0,1,5,1.92,9.47,9.47,0,0,1,3.21,4.34,5.84,5.84,0,0,1,.26,2.79,5.05,5.05,0,0,1-1.23,2.58,9.51,9.51,0,0,1-2.22,1.72,10.86,10.86,0,0,1-2.62,1,17.31,17.31,0,0,1-5.46.25,30.66,30.66,0,0,1-5.31-1,62.47,62.47,0,0,1-10-3.75A141.53,141.53,0,0,1,17,27.14q-4.39-3-8.65-6.08C5.49,18.93,2.68,16.8,0,14.51Z"/></g></g></svg>