<svg xmlns="http://www.w3.org/2000/svg" viewBox="0 0 843.45 314.67"><defs><style>.cls-1{fill:#e981ef;}.cls-2{fill:#51e5be;}.cls-3{fill:#e8ba38;}.cls-4{fill:#69a0d1;}.cls-5{font-size:49.35px;fill:#558ac4;font-family:CourierStd-Bold, Courier Std;font-weight:700;letter-spacing:-0.03em;}</style></defs><g id="레이어_2" data-name="레이어 2"><g id="레이어_1-2" data-name="레이어 1"><path class="cls-1" d="M88.1,126.61a139,139,0,0,0-13.73-23.24l-19.47-27h-17V106H54.23v20.58H0V106H17.49V20.59H.89V0h60.2c9.08,0,18.82.67,26.56,5.09,11.74,6.64,17.49,19,17.49,32.1,0,15.71-9.29,29-20.81,32.54L75.7,72.38,101.16,106h16.6v20.58Zm-22.8-106H37.85V55.78H57.77C67.51,55.78,85,54.9,85,37.41,85,21.25,70.83,20.59,65.3,20.59Z"/><path class="cls-2" d="M202.71,199.71V189.3c-3.32,2-10,6.2-10,6.2-6.2,3.76-17.27,6.86-27,6.86-24.79,0-38.07-17.48-38.07-31.87,0-4.21,2-34.53,51.13-34.53a212.23,212.23,0,0,1,23.91,1.55v-2.66c0-13.28-16.38-13.72-21.69-13.72-13.06,0-25.9,3.76-38.07,8.63l-8-17.71c14.16-6,30.76-11.51,46.92-11.51,4.43,0,29.22,0,37.41,17.71,3.32,7.08,3.32,15.94,3.32,24.13v36.74h17.05v20.59Zm0-41.62c-6.42-.44-14.61-1.77-27-1.77-11.28,0-27.66,3.54-27.66,14.39,0,7.08,8.63,11.07,17.48,11.07,14.39,0,27-7.53,37.19-17.05Z"/><path class="cls-3" d="M280.36,129.27c-15.49,0-38.07-4.43-38.07-34.75V51.13H228.34V30.55h13.95V1.11h20.58V30.55h52.68V51.13H262.87V89.65c0,9.52,1.11,19.26,17.71,19.26,14.39,0,36.52-9.74,44.49-13.28L328.61,116C314.23,122.19,297.18,129.27,280.36,129.27Z"/><path class="cls-2" d="M353.63,174.85V154.27h37V99.37h-31V78.79h51.58v75.48h36.3v20.58ZM387.71,65.73v-33h23.47v33Z"/><path class="cls-3" d="M533.58,224.56V204h16.83v-42.5c0-8.63-1.33-15.49-16.16-15.49-6.42,0-20.59,2.65-31.44,12.17V204h17.27v20.59H465.41V204h17V149.08H465V128.49h37.85v7.08a63.2,63.2,0,0,1,33.43-10c11.51,0,22.13,3.1,29,12.4a36.65,36.65,0,0,1,5.53,18.81V204h16.6v20.59Z"/><path class="cls-2" d="M696.94,80.49v70.83c0,23.91-4.65,45.6-45.6,45.6-16.38,0-32.1-3.54-50.47-7.75l4.87-20.8c8.41,2.43,28.78,7.74,44.93,7.74,25.46,0,26.12-10.4,26.12-23.46V144c-8.41,6.64-19.7,9.74-30.76,9.74-31.21,0-52.91-20.81-52.91-48,0-27,21.92-48.47,53.57-48.47,11.07,0,21.92,2.88,30.1,9.51V59.9H714V80.49Zm-51.13-2.66c-17.27,0-31.88,11.29-31.88,27.45,0,16.6,15.72,27.89,31.65,27.89,18.82,0,31.21-10.4,31.21-27.22C676.79,88.46,663.74,77.83,645.81,77.83Z"/><path class="cls-1" d="M783.93,158.51a89.26,89.26,0,0,1-32.1-6.42v6.42H731.47V116.89h20.36v15.5a89.77,89.77,0,0,0,31,5.53c11.73,0,25.68-3.76,25.68-11.29,0-2.43-.67-4.65-3.1-6-6.86-3.77-16.6-2.66-24.57-3.32-15.5-1.33-46.49-3.55-46.49-30.33,0-21.91,22.14-30.33,41.4-30.33a80.12,80.12,0,0,1,27.89,5.1v-5.1H824V95.2H803.63V82.81c-7.31-3.55-17-5.54-26.12-5.54-4.87,0-23.69,1.11-23.69,10.18,0,8.19,14.83,9.52,20.15,10l27.67,2.22c14.16,1.1,26.56,10.84,26.56,27C828.2,146.11,808.5,158.51,783.93,158.51Z"/><circle class="cls-3" cx="781.83" cy="19.9" r="10.85"/><rect class="cls-4" x="619.02" y="223.61" width="69.99" height="47.14"/><rect class="cls-4" x="645.66" y="267.53" width="197.79" height="47.14"/><text class="cls-5" transform="translate(653.6 300.79)">my</text><text class="cls-5" transform="translate(723.1 300.79)">room</text><text class="cls-5" transform="translate(624.43 263.15)">in</text></g></g></svg>