<svg xmlns="http://www.w3.org/2000/svg" viewBox="0 0 1024.58 87.81"><defs><style>.cls-1,.cls-2{fill:none;stroke:#000;stroke-miterlimit:10;stroke-width:5px;}.cls-2{stroke-dasharray:10.05 10.05;}</style></defs><g id="레이어_2" data-name="레이어 2"><g id="레이어_1-2" data-name="레이어 1"><path class="cls-1" d="M26.24,58.41c1.72.13,3.38.28,5,.44"/><path class="cls-2" d="M41.2,60.05C69.31,64.09,82,71.5,128.65,71.5c64.11,0,64.11-14,128.22-14s64.12,14,128.23,14,64.11-14,128.23-14,64.11,14,128.23,14,64.11-14,128.22-14,64.12,14,128.24,14c39,0,54.27-5.18,74.68-9.24"/><path class="cls-1" d="M977.64,61.32c1.59-.28,3.23-.56,4.93-.83"/><path d="M0,69.13A6,6,0,0,0,5.81,75.4a5.9,5.9,0,0,0,3.65-1.06L24.67,60.27a2.12,2.12,0,0,0,1.12.75L20.17,79.27l-.46,1.48A6.07,6.07,0,0,0,30.81,85a6.23,6.23,0,0,0,.94-3.57v0l-.43-1.86,0-.11-.05-.1-.05-.1-4-18.13a2.21,2.21,0,0,0,1.22-.65l14,15.16c.25.16.44.32.68.47A6.06,6.06,0,0,0,49.52,65.8a5.19,5.19,0,0,0-.74-.38h0l-1.64-.51H47l-.09-.05L29.11,59.3a3.45,3.45,0,0,0,.13-.7,3.34,3.34,0,0,0-.08-.7l18.58-4.18,1.51-.34a4.55,4.55,0,0,0,.76-.32,6.1,6.1,0,0,0,2.53-8.21,6,6,0,0,0-8.16-2.52c-.26.14-.46.28-.72.42l-.62.53L28.51,56.72A2.16,2.16,0,0,0,27.38,56L33,37.83l.51-1.53v-.1a3,3,0,0,0,.08-.69A6.07,6.07,0,0,0,21.45,35a4.17,4.17,0,0,0,0,.8v.1l.05.1.26,1.06.08.31L26,55.92a2.22,2.22,0,0,0-1.18.66L11.7,42.41,11,41.63a6,6,0,0,0-9.39,7.29,6.16,6.16,0,0,0,2.8,2.71h.05l1.48.46L24.07,57.7A2.51,2.51,0,0,0,24,59.1L5.38,63.37h-.2l-1.26.3A6.09,6.09,0,0,0,0,69.13Z"/><path d="M982.68,45.75,947.51,56.93c5.53-9.36,14-12.63,23.61-16.44l10.56-4.2c1-.41,4.8-1.21,5.24-2.33,1.48-3.72,3-7.47,5.73-10.44,1.41-1.53,4.62-3.53,3.73-5.87-.77-2-3.43-2.81-4.08-5.33a10.6,10.6,0,0,1,4-10.63c3.33-2.46,8.15-2.35,10.72,1.09,3.87,5.17,0,11-4.18,14.38-3.05,2.48-6.07,4.87-8,8.38a25.61,25.61,0,0,0-2.28,5.3c-.6,2.21-.92,3.05.89,4.1,6.74,3.9,13-2.19,18.09-5.38,8.64-5.45,16.82,3.56,11.15,11.76-2.11,3.06-6,5-9.72,3.86a8,8,0,0,1-4.4-3.56c-1-1.62-1-4.4-3-4.78-2.42-.45-8,3.07-10.16,3.92-4.87,1.89-4.79,1.87-6.28,6.89-1.11,3.74-2.21,7.47-3.38,11.19-.36,1.15-.63,4.27-2,4.37l-6.61.5C978.72,57.56,980.59,51.73,982.68,45.75Zm12.57-33.29c3.76,6.85,12.77-1.07,10.55-6.8C1002.71-2.34,991.59,6.06,995.25,12.46Zm18.48,18.68c-6.9,3.76-3.16,15,4.35,11.12C1025.23,38.59,1021.41,26.67,1013.73,31.14Z"/></g></g></svg>