<svg xmlns="http://www.w3.org/2000/svg" viewBox="0 0 1025.56 45.77"><defs><style>.cls-1,.cls-2{fill:none;stroke:#000;stroke-miterlimit:10;stroke-width:5px;}.cls-2{stroke-dasharray:10 10;}</style></defs><g id="레이어_2" data-name="레이어 2"><g id="레이어_1-2" data-name="레이어 1"><path class="cls-1" d="M13,29.47c1.72.06,3.38.13,5,.21"/><path class="cls-2" d="M28,30.35c38.1,3.29,47.18,12.92,100.34,12.92,64.11,0,64.11-14,128.22-14s64.12,14,128.23,14,64.11-14,128.23-14,64.11,14,128.22,14,64.12-14,128.23-14,64.12,14,128.24,14c51.27,0,61.54-9,96.39-12.55"/><path class="cls-1" d="M999.05,30.26c1.61-.13,3.27-.25,5-.36"/><path d="M0,35.08A3,3,0,0,0,4.78,37.6l7.46-7.19a1.06,1.06,0,0,0,.57.36L10.18,40,10,40.7a3,3,0,0,0,5.59,2,3.12,3.12,0,0,0,.43-1.8v0L15.76,40l0-.05,0,0,0,0-2.21-9a1.16,1.16,0,0,0,.61-.34l7.16,7.44.34.23a3,3,0,0,0,3.13-5.19,3.24,3.24,0,0,0-.37-.19h0l-.82-.24h-.07l-.05,0-8.93-2.6a1.14,1.14,0,0,0,0-.7l9.25-2.27.75-.19a3.17,3.17,0,0,0,.38-.17A3,3,0,0,0,26,22.42a3,3,0,0,0-4.1-1.17l-.36.21-.3.27L14.13,28.6a1.06,1.06,0,0,0-.57-.36l2.62-9.13.24-.77v-.05a1.27,1.27,0,0,0,0-.35,3,3,0,0,0-6.07-.11,2.61,2.61,0,0,0,0,.4v.05l0,0,.14.52,0,.15,2.25,9.22a1.07,1.07,0,0,0-.58.34l-6.7-6.95-.37-.38A3,3,0,1,0,2,26.29H2l.75.22,9.13,2.62a1.43,1.43,0,0,0-.06.35,2.09,2.09,0,0,0,0,.35L2.63,32.15h-.1l-.63.17A3,3,0,0,0,0,35.08Z"/><path d="M1004.41,22.45,986.6,27.27c3-4.55,7.27-6,12.15-7.7l5.36-1.87c.53-.18,2.43-.49,2.67-1.05a16.27,16.27,0,0,1,3.09-5.09c.74-.73,2.39-1.66,2-2.85-.34-1-1.65-1.48-1.92-2.75a5.3,5.3,0,0,1,2.23-5.22,3.81,3.81,0,0,1,5.33.77c1.82,2.67-.26,5.49-2.4,7.1a14.62,14.62,0,0,0-4.17,4,12.45,12.45,0,0,0-1.25,2.6c-.36,1.09-.53,1.5.35,2.07,3.28,2.09,6.56-.81,9.15-2.3,4.44-2.53,8.33,2.14,5.32,6.12a4.48,4.48,0,0,1-4.94,1.71,4,4,0,0,1-2.12-1.87c-.46-.83-.4-2.22-1.39-2.45-1.2-.28-4,1.36-5.16,1.74-2.47.84-2.43.83-3.28,3.3-.64,1.85-1.27,3.69-1.94,5.52-.2.57-.4,2.12-1.08,2.14l-3.31.1C1002.18,28.27,1003.24,25.4,1004.41,22.45Zm7-16.35c1.73,3.5,6.4-.26,5.42-3.17C1015.46-1.13,1009.72,2.82,1011.41,6.1Zm8.83,9.73c-3.53,1.73-1.91,7.42,1.93,5.65C1025.82,19.8,1024.17,13.76,1020.24,15.83Z"/></g></g></svg>